<svg width="31" height="30" viewBox="0 0 31 30" fill="none" xmlns="http://www.w3.org/2000/svg">
<path d="M13.3553 25H7.03947C6.70446 25 6.38317 24.8683 6.14629 24.6339C5.9094 24.3995 5.77632 24.0815 5.77632 23.75V6.25C5.77632 5.91848 5.9094 5.60054 6.14629 5.36612C6.38317 5.1317 6.70446 5 7.03947 5H13.3553V8.75C13.3553 9.74456 13.7545 10.6984 14.4652 11.4017C15.1758 12.1049 16.1397 12.5 17.1447 12.5H20.9342C20.9342 12.8315 21.0673 13.1495 21.3042 13.3839C21.5411 13.6183 21.8624 13.75 22.1974 13.75C22.5324 13.75 22.8537 13.6183 23.0906 13.3839C23.3274 13.1495 23.4605 12.8315 23.4605 12.5V11.25C23.4605 11.25 23.4605 11.25 23.4605 11.175C23.4474 11.0602 23.422 10.947 23.3847 10.8375V10.725C23.324 10.5965 23.243 10.4783 23.1447 10.375V10.375L15.5658 2.875C15.4614 2.77777 15.342 2.6976 15.2121 2.6375C15.1744 2.6322 15.1361 2.6322 15.0984 2.6375L14.6942 2.5H7.03947C6.03444 2.5 5.07058 2.89509 4.35991 3.59835C3.64925 4.30161 3.25 5.25544 3.25 6.25V23.75C3.25 24.7446 3.64925 25.6984 4.35991 26.4017C5.07058 27.1049 6.03444 27.5 7.03947 27.5H13.3553C13.6903 27.5 14.0116 27.3683 14.2484 27.1339C14.4853 26.8995 14.6184 26.5815 14.6184 26.25C14.6184 25.9185 14.4853 25.6005 14.2484 25.3661C14.0116 25.1317 13.6903 25 13.3553 25ZM15.8816 6.7625L19.1532 10H17.1447C16.8097 10 16.4884 9.8683 16.2515 9.63388C16.0147 9.39946 15.8816 9.08152 15.8816 8.75V6.7625ZM9.56579 10C9.23078 10 8.90949 10.1317 8.6726 10.3661C8.43571 10.6005 8.30263 10.9185 8.30263 11.25C8.30263 11.5815 8.43571 11.8995 8.6726 12.1339C8.90949 12.3683 9.23078 12.5 9.56579 12.5H10.8289C11.164 12.5 11.4852 12.3683 11.7221 12.1339C11.959 11.8995 12.0921 11.5815 12.0921 11.25C12.0921 10.9185 11.959 10.6005 11.7221 10.3661C11.4852 10.1317 11.164 10 10.8289 10H9.56579ZM26.7826 17.325C26.6359 17.2075 26.4644 17.1241 26.2808 17.0808C26.0972 17.0376 25.9061 17.0356 25.7216 17.075C25.2426 17.1749 24.7478 17.1742 24.2691 17.073C23.7904 16.9718 23.3385 16.7723 22.9426 16.4875C22.7263 16.3311 22.4653 16.2468 22.1974 16.2468C21.9294 16.2468 21.6684 16.3311 21.4521 16.4875C21.0558 16.7716 20.6039 16.9707 20.1254 17.0718C19.6468 17.173 19.1522 17.1741 18.6732 17.075C18.4866 17.0353 18.2934 17.0379 18.108 17.0827C17.9227 17.1275 17.75 17.2132 17.6029 17.3335C17.4558 17.4538 17.3382 17.6055 17.2588 17.7772C17.1795 17.949 17.1405 18.1362 17.1447 18.325V21.25C17.1428 22.1448 17.3519 23.0276 17.7553 23.8284C18.1588 24.6291 18.7456 25.3256 19.4689 25.8625L21.4395 27.25C21.6581 27.4123 21.9241 27.5 22.1974 27.5C22.4707 27.5 22.7366 27.4123 22.9553 27.25L24.9258 25.8C25.6406 25.2695 26.2222 24.583 26.6253 23.7938C27.0284 23.0047 27.2422 22.1342 27.25 21.25V18.2875C27.2488 18.1029 27.2062 17.9208 27.1254 17.7544C27.0446 17.588 26.9275 17.4413 26.7826 17.325V17.325ZM24.7237 21.25C24.7296 21.7522 24.6188 22.2489 24.3998 22.7019C24.1808 23.1549 23.8594 23.552 23.4605 23.8625L22.1974 24.7625L20.9342 23.8625C20.5353 23.552 20.214 23.1549 19.9949 22.7019C19.7759 22.2489 19.6651 21.7522 19.6711 21.25V19.65C20.5545 19.6107 21.4178 19.3758 22.1974 18.9625C22.9769 19.3758 23.8402 19.6107 24.7237 19.65V21.25ZM13.3553 20.0625H9.56579C9.23078 20.0625 8.90949 20.1942 8.6726 20.4286C8.43571 20.663 8.30263 20.981 8.30263 21.3125C8.30263 21.644 8.43571 21.962 8.6726 22.1964C8.90949 22.4308 9.23078 22.5625 9.56579 22.5625H13.3553C13.6903 22.5625 14.0116 22.4308 14.2484 22.1964C14.4853 21.962 14.6184 21.644 14.6184 21.3125C14.6184 20.981 14.4853 20.663 14.2484 20.4286C14.0116 20.1942 13.6903 20.0625 13.3553 20.0625ZM14.6184 15.0625H9.56579C9.23078 15.0625 8.90949 15.1942 8.6726 15.4286C8.43571 15.663 8.30263 15.981 8.30263 16.3125C8.30263 16.644 8.43571 16.962 8.6726 17.1964C8.90949 17.4308 9.23078 17.5625 9.56579 17.5625H14.6184C14.9534 17.5625 15.2747 17.4308 15.5116 17.1964C15.7485 16.962 15.8816 16.644 15.8816 16.3125C15.8816 15.981 15.7485 15.663 15.5116 15.4286C15.2747 15.1942 14.9534 15.0625 14.6184 15.0625Z" fill="#74031C"/>
</svg>
