<svg width="28" height="27" viewBox="0 0 28 27" fill="none" xmlns="http://www.w3.org/2000/svg">
<rect x="0.483398" width="27" height="27" rx="6" fill="#E80537"/>
<path d="M20.2558 10.7643C20.1515 8.44026 18.8589 7.14454 16.5307 7.0382C15.8462 7.00723 15.6284 7 13.8887 7C12.149 7 11.9322 7.00723 11.2477 7.03923C8.9216 7.14454 7.62897 8.43613 7.5216 10.7653C7.49063 11.4478 7.4834 11.6667 7.4834 13.4053C7.4834 15.1439 7.49063 15.3639 7.5216 16.0463C7.62897 18.3734 8.91953 19.6661 11.2477 19.7734C11.9322 19.8044 12.149 19.8116 13.8887 19.8116C15.6284 19.8116 15.8462 19.8044 16.5307 19.7734C18.8537 19.6661 20.1505 18.3755 20.2558 16.0463C20.2878 15.3639 20.295 15.146 20.295 13.4053C20.295 11.6646 20.2878 11.4478 20.2558 10.7643ZM19.1026 15.9957C19.0241 17.7168 18.2147 18.5417 16.4771 18.6212C15.8029 18.6512 15.5995 18.6574 13.8887 18.6574C12.1779 18.6574 11.9756 18.6501 11.3004 18.6202C9.56068 18.5407 8.75434 17.7147 8.67484 15.9947C8.64387 15.3184 8.63664 15.1161 8.63664 13.4053C8.63664 11.6945 8.64387 11.4932 8.67588 10.817C8.75434 9.0938 9.56378 8.27094 11.3014 8.19144C11.9756 8.1615 12.179 8.15428 13.8887 8.15428C15.5984 8.15428 15.8029 8.1615 16.4771 8.19144C18.2136 8.27094 19.0241 9.09484 19.1026 10.819C19.1335 11.4932 19.1397 11.6966 19.1397 13.4063C19.1397 15.1161 19.1335 15.3195 19.1026 15.9957Z" fill="white"/>
<path d="M18.0774 9.98695C18.0774 10.4113 17.7335 10.7551 17.3092 10.7551C16.8849 10.7551 16.54 10.4113 16.54 9.98695C16.54 9.56261 16.8838 9.21777 17.3092 9.21777C17.7346 9.21777 18.0774 9.56261 18.0774 9.98695Z" fill="white"/>
<path d="M13.89 10.1161C12.0739 10.1161 10.6006 11.5894 10.6006 13.4055C10.6006 15.2215 12.0729 16.6948 13.89 16.6948C15.7071 16.6948 17.1793 15.2226 17.1793 13.4055C17.1793 11.5884 15.706 10.1161 13.89 10.1161ZM13.89 15.5416C12.7109 15.5416 11.7549 14.5856 11.7549 13.4055C11.7549 12.2254 12.7109 11.2704 13.89 11.2704C15.069 11.2704 16.0261 12.2264 16.0261 13.4055C16.0261 14.5845 15.0701 15.5416 13.89 15.5416Z" fill="white"/>
</svg>
