<svg width="28" height="27" viewBox="0 0 28 27" fill="none" xmlns="http://www.w3.org/2000/svg">
<rect x="0.483398" width="27" height="27" rx="6" fill="#E80537"/>
<path d="M11.0689 11.6711H8.55371V18.6498H11.0689V11.6711Z" fill="white"/>
<path d="M11.1326 9.19636C11.1326 9.87986 10.6197 10.3927 9.76556 10.3927C8.99723 10.3927 8.4834 9.87986 8.4834 9.19636C8.4834 8.51287 8.99626 8 9.8504 8C10.6187 8 11.1326 8.5119 11.1326 9.19636Z" fill="white"/>
<path d="M20.0402 14.8351V18.6498H17.6061V14.8351C17.6061 13.7804 16.9573 13.5375 16.7134 13.5375C16.4695 13.5375 15.6587 13.7004 15.6587 14.8351V18.6498H13.1436V11.6711H15.6587V12.6458C15.9826 12.077 16.6324 11.6711 17.849 11.6711C19.0656 11.6711 20.0402 12.6458 20.0402 14.8351Z" fill="white"/>
</svg>
