<svg width="31" height="31" viewBox="0 0 31 31" fill="none" xmlns="http://www.w3.org/2000/svg">
<path d="M27.4 13.9855C27.042 13.9855 26.6986 14.1277 26.4454 14.3809C26.1922 14.634 26.05 14.9774 26.05 15.3355C26.0661 17.864 25.1999 20.3191 23.6006 22.2778C22.0014 24.2364 19.7692 25.5761 17.2884 26.0661C14.8077 26.556 12.2338 26.1656 10.01 24.962C7.78616 23.7584 6.05165 21.817 5.10519 19.4722C4.15873 17.1274 4.05957 14.5259 4.82479 12.1158C5.59001 9.70574 7.1717 7.63795 9.29745 6.26857C11.4232 4.89919 13.9599 4.31395 16.4708 4.61365C18.9816 4.91335 21.3093 6.07922 23.053 7.91047H19.813C19.455 7.91047 19.1116 8.0527 18.8584 8.30587C18.6052 8.55904 18.463 8.90242 18.463 9.26046C18.463 9.61851 18.6052 9.96188 18.8584 10.2151C19.1116 10.4682 19.455 10.6105 19.813 10.6105H25.9285C26.2865 10.6105 26.6299 10.4682 26.8831 10.2151C27.1363 9.96188 27.2785 9.61851 27.2785 9.26046V3.18547C27.2785 2.82743 27.1363 2.48405 26.8831 2.23088C26.6299 1.9777 26.2865 1.83547 25.9285 1.83547C25.5705 1.83547 25.2271 1.9777 24.9739 2.23088C24.7207 2.48405 24.5785 2.82743 24.5785 3.18547V5.57497C22.3303 3.42585 19.409 2.11891 16.3084 1.87507C13.2078 1.63123 10.1182 2.46544 7.56165 4.2367C5.00514 6.00796 3.13863 8.60761 2.27762 11.5962C1.41662 14.5848 1.61394 17.7791 2.83622 20.639C4.05851 23.4989 6.23079 25.849 8.98586 27.2922C11.7409 28.7353 14.9098 29.1829 17.9568 28.5593C21.0038 27.9357 23.742 26.2792 25.7086 23.8697C27.6752 21.4602 28.7495 18.4456 28.75 15.3355C28.75 14.9774 28.6078 14.634 28.3546 14.3809C28.1014 14.1277 27.758 13.9855 27.4 13.9855Z" fill="#74031C"/>
</svg>
