<svg width="31" height="30" viewBox="0 0 31 30" fill="none" xmlns="http://www.w3.org/2000/svg">
<path d="M22.75 10.5V7.5C22.75 5.51088 21.9598 3.60322 20.5533 2.1967C19.1468 0.790176 17.2391 0 15.25 0C13.2609 0 11.3532 0.790176 9.9467 2.1967C8.54018 3.60322 7.75 5.51088 7.75 7.5V10.5C6.55653 10.5 5.41193 10.9741 4.56802 11.818C3.72411 12.6619 3.25 13.8065 3.25 15V25.5C3.25 26.6935 3.72411 27.8381 4.56802 28.682C5.41193 29.5259 6.55653 30 7.75 30H22.75C23.9435 30 25.0881 29.5259 25.932 28.682C26.7759 27.8381 27.25 26.6935 27.25 25.5V15C27.25 13.8065 26.7759 12.6619 25.932 11.818C25.0881 10.9741 23.9435 10.5 22.75 10.5ZM10.75 7.5C10.75 6.30653 11.2241 5.16193 12.068 4.31802C12.9119 3.47411 14.0565 3 15.25 3C16.4435 3 17.5881 3.47411 18.432 4.31802C19.2759 5.16193 19.75 6.30653 19.75 7.5V10.5H10.75V7.5ZM24.25 25.5C24.25 25.8978 24.092 26.2794 23.8107 26.5607C23.5294 26.842 23.1478 27 22.75 27H7.75C7.35218 27 6.97064 26.842 6.68934 26.5607C6.40804 26.2794 6.25 25.8978 6.25 25.5V15C6.25 14.6022 6.40804 14.2206 6.68934 13.9393C6.97064 13.658 7.35218 13.5 7.75 13.5H22.75C23.1478 13.5 23.5294 13.658 23.8107 13.9393C24.092 14.2206 24.25 14.6022 24.25 15V25.5Z" fill="#74031C"/>
</svg>
