<svg width="31" height="31" viewBox="0 0 31 31" fill="none" xmlns="http://www.w3.org/2000/svg">
<path d="M26.0042 3.1403C25.8372 2.99929 25.6421 2.89913 25.4331 2.8472C25.2242 2.79527 25.0067 2.79288 24.7968 2.84021C23.2607 3.17623 21.675 3.18051 20.1373 2.85278C18.5996 2.52506 17.1424 1.87227 15.8555 0.934609C15.6149 0.760363 15.329 0.666992 15.0361 0.666992C14.7433 0.666992 14.4574 0.760363 14.2168 0.934609C12.9298 1.87227 11.4727 2.52506 9.93498 2.85278C8.39727 3.18051 6.81157 3.17623 5.27551 2.84021C5.06555 2.79288 4.8481 2.79527 4.63913 2.8472C4.43017 2.89913 4.23502 2.99929 4.06802 3.1403C3.90124 3.28152 3.76689 3.45995 3.67485 3.66249C3.58281 3.86502 3.53541 4.0865 3.53614 4.31067V15.4892C3.53486 17.6405 4.026 19.7609 4.96866 21.674C5.91132 23.5871 7.27821 25.2375 8.95551 26.4876L14.2024 30.3888C14.4458 30.5698 14.7373 30.667 15.0361 30.667C15.335 30.667 15.6264 30.5698 15.8699 30.3888L21.1168 26.4876C22.7941 25.2375 24.1609 23.5871 25.1036 21.674C26.0463 19.7609 26.5374 17.6405 26.5361 15.4892V4.31067C26.5369 4.0865 26.4895 3.86502 26.3974 3.66249C26.3054 3.45995 26.171 3.28152 26.0042 3.1403ZM23.6611 15.4892C23.6622 17.1618 23.2806 18.8106 22.548 20.2982C21.8154 21.7858 20.753 23.0693 19.4493 24.0418L15.0361 27.3279L10.623 24.0418C9.31925 23.0693 8.25687 21.7858 7.52427 20.2982C6.79166 18.8106 6.41004 17.1618 6.41114 15.4892V6.03621C9.42475 6.30544 12.4429 5.5756 15.0361 3.95055C17.6293 5.5756 20.6475 6.30544 23.6611 6.03621V15.4892ZM17.2499 12.0531L13.383 16.1044L12.1036 14.7539C11.8329 14.4714 11.4658 14.3127 11.083 14.3127C10.7002 14.3127 10.3331 14.4714 10.0624 14.7539C9.7917 15.0365 9.63963 15.4197 9.63963 15.8193C9.63963 16.2188 9.7917 16.6021 10.0624 16.8846L12.3624 19.2854C12.496 19.426 12.655 19.5376 12.8302 19.6138C13.0054 19.69 13.1932 19.7292 13.383 19.7292C13.5728 19.7292 13.7607 19.69 13.9358 19.6138C14.111 19.5376 14.27 19.426 14.4036 19.2854L19.3486 14.1688C19.6193 13.8862 19.7714 13.503 19.7714 13.1034C19.7714 12.7038 19.6193 12.3206 19.3486 12.0381C19.0779 11.7555 18.7108 11.5968 18.328 11.5968C17.9452 11.5968 17.5781 11.7555 17.3074 12.0381L17.2499 12.0531Z" fill="#74031C"/>
</svg>
