<svg width="28" height="27" viewBox="0 0 28 27" fill="none" xmlns="http://www.w3.org/2000/svg">
<rect x="0.483398" width="27" height="27" rx="6" fill="#E80537"/>
<path d="M19.3809 10.2173C19.2529 9.7382 18.876 9.36136 18.397 9.2323C17.5287 9 14.0483 9 14.0483 9C14.0483 9 10.5679 9 9.69962 9.2323C9.22057 9.36032 8.84372 9.7382 8.7157 10.2173C8.4834 11.0855 8.4834 13.4519 8.4834 13.4519C8.4834 13.4519 8.4834 15.8193 8.7157 16.6876C8.84372 17.1667 9.22057 17.5435 9.69962 17.6715C10.5679 17.9038 14.0483 17.9038 14.0483 17.9038C14.0483 17.9038 17.5287 17.9038 18.397 17.6715C18.876 17.5435 19.2529 17.1667 19.3809 16.6876C19.6132 15.8193 19.6132 13.4519 19.6132 13.4519C19.6132 13.4519 19.6132 11.0845 19.3809 10.2173ZM12.9353 15.3805V11.5254L16.2753 13.4529L12.9353 15.3805Z" fill="white"/>
<path d="M16.2735 13.4519L12.9346 15.3806V11.5254L16.2735 13.4519Z" fill="#E80537"/>
</svg>
