<svg width="148" height="126" viewBox="0 0 148 126" fill="none" xmlns="http://www.w3.org/2000/svg">
<g clip-path="url(#clip0_438_2112)">
<path d="M100.622 42.6684L12.6445 29.0513L9.65733 77.2238L56.8335 85.4588L52.585 112.907L61.1778 99.6615L88.8682 103.239L100.622 42.6684Z" fill="#FFCB2E"/>
<path d="M115.856 56.4168C115.611 54.6736 115.334 52.8288 115.178 52.1772L113.112 44.6498L111.168 37.5759L109.748 33.5593L109.023 29.7306L107.562 24.4206L106.524 20.64C106.277 19.6365 105.537 17.0444 104.765 15.7987C103.762 14.1794 102.302 12.8112 100.395 12.9825C98.6804 13.1516 94.939 13.9561 94.1996 14.1634L37.8155 30.0031C37.2453 30.1562 36.2739 30.4081 35.2457 30.7155C32.4971 31.5449 29.8641 33.8081 30.3093 36.6441C30.3093 36.6441 32.5634 46.9034 32.9592 48.3965L39.4824 74.2787C40.001 76.2252 42.5801 78.1528 44.466 78.8469L47.3389 79.2916C48.527 79.7168 52.3198 79.5155 53.5461 79.1744L64.2908 75.7053L72.9482 73.5702L80.7893 71.3088L86.6505 69.2718L93.0873 67.7744L102.022 65.1996L109.376 63.0719C109.962 62.9213 110.845 62.7201 111.819 62.4525C114.485 61.7391 116.203 59.1573 115.824 56.4119L115.856 56.4168ZM110.958 57.3159C110.497 58.3224 109.625 59.0723 108.553 59.3568L70.3626 69.711L49.2042 75.4456C48.4309 75.6637 47.6049 75.6002 46.8467 75.3059L45.8494 74.8941C44.7761 74.4545 43.969 73.5413 43.6586 72.4314L34.6909 39.2851C34.4539 38.4279 34.5454 37.525 34.9279 36.7155L35.4484 35.6377C35.9205 34.665 36.7715 33.9441 37.8129 33.6548L97.5261 17.4937C98.4165 17.2454 99.3815 17.3465 100.199 17.7787L100.272 17.8223C101.195 18.3029 101.881 19.1653 102.143 20.1711C103.996 27.3115 111.467 56.1075 111.33 56.4725C111.277 56.609 111.129 56.9401 110.958 57.3159Z" fill="black"/>
<path d="M100.287 17.8244L100.214 17.7809C99.3964 17.3487 98.4315 17.2476 97.5411 17.4959L37.8255 33.6726C36.7841 33.9619 35.9173 34.6804 35.461 35.6555L34.9405 36.7333C34.5604 37.5272 34.4664 38.4458 34.7035 39.303L43.6711 72.4492C43.9792 73.5748 44.7862 74.4881 45.862 74.912L46.8592 75.3238C47.5993 75.6314 48.4278 75.6792 49.2167 75.4634L70.3752 69.7289L108.565 59.3746C109.638 59.0902 110.509 58.3403 110.971 57.3337C111.141 56.9579 111.289 56.6269 111.342 56.4903C111.495 56.1278 104.024 27.3318 102.156 20.189C101.894 19.1831 101.207 18.3207 100.285 17.8401L100.287 17.8244Z" fill="#E80537"/>
<path d="M59.4867 27.8071C59.4867 27.8071 55.851 32.6018 57.2636 37.8078C58.6762 43.0138 63.4264 45.4544 66.6523 45.6963C69.8781 45.9382 75.1326 42.0054 75.1326 42.0054C75.1326 42.0054 76.9317 39.0019 74.3329 36.2668C71.7341 33.5318 66.4048 36.182 66.5983 34.8284C66.7917 33.4747 69.8045 29.4846 69.8045 29.4846L69.8889 24.9929L59.4867 27.8071Z" fill="#59D359"/>
<path d="M74.7213 48.715C74.2006 48.8596 66.0921 48.0711 61.1972 52.3813C56.3204 56.6782 56.5321 59.8804 56.9198 63.3994C57.3075 66.9184 62.4235 71.8771 62.4235 71.8771L100.561 61.547C100.561 61.547 100.047 49.4977 96.4112 45.3633C92.7751 41.2289 87.6461 39.4697 82.2267 41.7681C76.8072 44.0665 74.7189 48.7307 74.7189 48.7307L74.7213 48.715Z" fill="#FF7500"/>
<path d="M54.8135 45.5369C55.166 46.8946 55.7942 49.0673 56.1805 50.4141C56.3683 51.0706 55.9895 51.7521 55.3335 51.9401L47.5722 54.1013C46.9162 54.2893 46.2378 53.8947 46.05 53.2382L44.7 48.2511C44.528 47.597 44.9067 46.9155 45.5603 46.7432L53.2962 44.6425C53.9522 44.4544 54.6306 44.849 54.8002 45.5188L54.8135 45.5369Z" fill="#A6A6A6"/>
<path d="M117.959 49.8885L129.459 37.5913L131.486 44.4368L117.959 49.8885Z" fill="#59D359"/>
<path d="M119.376 54.3392C120.435 54.0366 138.386 51.8919 138.386 51.8919L138.985 57.6799L119.394 54.3259L119.376 54.3392Z" fill="#59D359"/>
<path d="M123.836 61.3525L140.144 67.4322L137.183 72.5404L123.836 61.3525Z" fill="#59D359"/>
</g>
<defs>
<clipPath id="clip0_438_2112">
<rect width="131.87" height="106.157" fill="white" transform="translate(17.1406) rotate(8.79839)"/>
</clipPath>
</defs>
</svg>
