<svg width="161" height="128" viewBox="0 0 161 128" fill="none" xmlns="http://www.w3.org/2000/svg">
<g clip-path="url(#clip0_438_1998)">
<path d="M124.531 118.753C122.955 118.426 126.45 108.941 126.851 108.948C127.005 107.926 127.103 107.266 127.103 107.266L26.8606 109.994L26.281 121.338C26.281 121.338 124.234 118.61 124.669 119.836C124.758 120.101 124.929 119.671 125.128 118.833C124.927 118.816 124.726 118.798 124.531 118.753Z" fill="white"/>
<path d="M126.321 118.841C124.871 118.397 117.125 118.379 117.125 118.379L108.795 118.783L100.591 118.981L92.3035 118.873L84.6229 119.313L75.7868 118.867L67.5228 118.958L59.2889 119.095L51.0427 119.129L42.7233 119.078L34.5064 119.414L27.5698 119.299L26.8601 109.987L34.0898 109.901L42.4801 109.852L50.9975 110.135L59.4726 109.992L67.9317 109.671L76.3163 109.243L84.7075 109.484L93.2532 109.103L101.659 108.688L110.118 108.76L118.547 108.537L125.542 108.449L128.765 105.649L118.489 105.78L110.087 106.002L101.636 105.93L93.1196 106.351L84.7253 106.724L76.3275 106.49L67.7984 106.925L59.3872 107.237L51.0084 107.375L42.5047 107.091L34.0526 107.143L24.1652 110.152L24.7187 123.025L34.2255 122.83L42.6799 122.281L50.9918 122.319L59.2986 121.854L67.9544 122.144L75.1804 122.12L83.784 122.198L93.0726 122.186L101.274 122.23L109.292 122.049L117.657 121.912L124.709 121.841C125.69 121.874 126.781 120.694 126.883 119.716C126.883 119.716 126.518 118.92 126.308 118.855L126.321 118.841Z" fill="#191919"/>
<path d="M25.6485 108.814L30.5465 46.0099L119.166 39.0383L128.46 107.238L25.6485 108.814Z" fill="#9BE59B"/>
<path d="M25.19 100.897L25.3509 92.9683L26.1028 85.1339L26.7738 77.3381L27.0554 69.3415L28.1788 61.6261L28.2417 53.6682L29.3088 44.7139L38.482 43.9284L46.5114 43.1599L54.5894 42.5337L62.6901 42.2169L70.7002 41.477L78.771 40.8444L94.8556 39.4095L102.883 38.6066L111 38.0682L120.408 37.5536L121.502 47.3704L123.042 55.9295L123.731 64.4355L125.419 72.9043L126.509 81.4381L127.189 90.0342L128.544 98.4786L130.041 107.136C130.197 108.019 129.493 108.82 128.594 108.783L119.88 108.421L111.361 108.662L94.2543 109.384L85.5743 109.564L77.0667 109.205L68.5762 109.721L59.9606 109.947L51.345 109.904L42.7267 110.212L34.1977 109.841L24.1779 110.117M85.3913 106.248L94.2809 106.257L108.347 105.539L119.508 105.197L126.154 105.148L124.961 98.6683L124.071 90.283L122.718 81.7488L122.68 73.2925L120.981 64.7276L120.291 56.2079L118.754 47.7107L117.942 40.4391L111.147 40.8066L103.091 41.3349L95.0982 42.1361L78.9792 43.5727L70.9153 44.205L62.8501 44.9477L54.7353 45.2584L46.7326 45.8737L38.7102 46.6419L31.7547 47.2383L30.9627 53.8812L30.8958 61.8945L29.7662 69.624L29.4921 77.4961L28.8166 85.3404L28.0699 93.14L27.9104 101.096L28.0161 106.817L34.3764 106.72L43.2805 107.011L51.2936 107.14L59.9551 106.732L67.9731 106.551L77.0287 106.434L85.3837 106.235L85.3913 106.248Z" fill="#191919"/>
<path d="M4.84862 35.3993L4.71326 42.7469L4.64423 50.0428L9.93574 53.7329L15.0376 57.6258L20.3194 61.2612L25.4464 65.1045L30.767 68.6896L35.9647 72.4328L41.1497 76.1973L46.5156 79.7248L51.861 83.2535L56.8986 87.2394L62.245 90.7886L67.4946 94.4671L72.8156 98.059L77.7836 101.897L78.3404 95.6453L78.6683 89.233L79.1007 82.7051L73.686 79.3042L68.2695 76.1379L63.14 72.5155L57.7427 69.3206L52.3001 66.1833L47.1779 62.5674L42.0231 58.9876L36.5231 55.9429L31.4005 52.3201L25.9325 49.2255L20.8731 45.4891L15.6036 42.0946L10.2884 38.7507L4.84862 35.3993Z" fill="#FF7500"/>
<path d="M79.0022 89.2917L79.3765 95.2749L79.549 101.358L85.2356 98.0598L91.0233 95.3911L96.6666 92.4608L102.049 89.0194L107.906 86.4921L113.305 83.0913L119.086 80.423L124.683 77.3984L130.157 74.1386L136.044 71.658L141.619 68.5932L147.246 65.6154L152.689 62.4124L153.905 56.5136L154.874 50.7724L149.577 53.1952L144.253 56.1507L138.721 58.6959L133.281 61.4227L128.017 64.4993L122.509 67.0985L117.077 69.8456L111.691 72.68L106.182 75.2724L100.774 78.0735L95.3798 80.8945L90.2084 84.1526L84.4856 86.335L79.0022 89.2917Z" fill="white"/>
<path d="M154.1 49.2595L151.302 52.5276L145.738 55.2538L140.434 58.4911L134.886 61.2648L129.193 63.7493L123.836 66.8789L118.425 69.9078L112.96 72.829L107.343 75.4545L102.039 78.6849L96.5374 81.5528L90.9662 84.2725L85.3653 86.9523L79.9115 90.218L74.744 86.3905L69.8841 82.3749L64.7728 78.7032L59.7457 74.9237L54.4476 71.51L49.62 67.4513L44.4511 63.8653L39.3463 60.1864L34.1643 56.615L29.4078 52.4629L24.2646 48.8412L19.2179 45.0835L14.0163 41.5337L8.95583 37.7766L5.19368 33.6498L9.77386 31.3739L15.8106 29.3962L21.689 27.0196L27.6471 24.8528L33.4386 22.2598L39.3809 20.0524L45.1089 17.2971L50.9791 14.8933L56.9685 12.8008L62.7997 10.3093L68.8909 8.45302L74.6561 6.02008L80.2521 8.51485L85.5679 11.7345L91.0598 14.621L96.6584 17.3019L102.044 20.3939L107.384 23.5571L113.052 26.1034L118.537 29.004L123.954 32.0322L129.389 35.0182L134.799 38.0606L140.291 40.9608L145.764 43.8758L151.263 46.7688L154.1 49.2595Z" fill="#FF7500"/>
<path d="M151.979 45.394L135.557 36.7044L130.133 33.6558L124.705 30.6764L119.26 27.622L113.774 24.7283L108.099 22.1686L102.809 19.0442L97.4307 15.9519L91.7757 13.2462L86.3261 10.3783L81.053 7.18406L74.6663 4.32948L68.3545 6.99729L62.3448 8.82869L56.4049 11.3533L50.4629 13.4296L44.5182 15.8579L38.7767 18.6208L32.9022 20.8041L27.0701 23.4129L21.112 25.5797L15.281 27.9401L9.29173 29.9016L3.34972 32.654L3.16771 42.736L3.08509 50.8467L8.99854 54.9673L14.0935 58.8606L19.3895 62.5021L24.5233 66.3451L29.8653 69.9429L40.2479 77.4506L50.9596 84.5137L55.9397 88.4542L61.3577 92.055L66.6286 95.7461L71.9069 99.3127L79.0013 103.332L85.9537 99.4306L91.6739 96.793L97.3842 93.8248L102.781 90.3827L108.523 87.9026L114.042 84.4404L119.736 81.818L125.481 78.7169L130.862 75.5101L136.654 73.0758L142.357 69.9492L147.984 66.9714L154.083 63.3899L155.448 56.7592L156.905 48.1369L151.999 45.3792L151.979 45.394ZM9.92124 36.5616L7.08899 34.3053L10.3438 32.8145L16.2994 30.8686L22.2252 28.4758L28.1833 26.3089L34.0288 23.6925L39.9236 21.5013L45.7394 18.7071L51.5284 16.335L57.4841 14.258L63.336 11.7654L69.3457 9.93404L74.6454 7.70423L79.5426 9.88281L84.773 13.0517L90.3998 16.014L95.9485 18.663L101.263 21.7172L106.61 24.88L112.384 27.4899L117.792 30.3462L123.216 33.3878L128.644 36.3673L134.089 39.4285L150.539 48.1305L153.347 49.6362L151.912 50.4269L148.946 51.7787L146.197 53.3057L145.067 53.8602L143.702 54.6956L143.568 54.7714L138.043 57.3094L132.603 60.0362L128.946 62.1683L128.589 62.3246L126.834 63.3455L121.824 65.7054L116.372 68.4673L111.046 71.2711L105.484 73.8938L94.6748 79.5162L89.523 82.7527L79.6227 86.8592L76.8861 85.2603L74.0659 82.6998L70.4163 79.9677L67.2792 77.9546L64.0595 75.5386L58.8651 71.3192L55.4379 68.7552L52.1035 66.7935L46.8333 62.8471L40.8579 59.2678L35.5945 55.1831L30.8908 51.256L26.7901 47.926L21.8026 44.248L16.4333 40.7896L11.1104 37.4323L11.0106 37.3684L9.92847 36.5681L9.92124 36.5616ZM76.4946 98.9406L73.7595 96.831L68.3879 93.1934L63.1029 89.4961L57.8137 85.9853L52.8266 82.0451L42.0365 74.9308L31.6325 67.4104L26.3476 63.8511L21.1994 59.9951L15.9465 56.3858L10.8301 52.4798L6.20358 49.2526L6.26696 42.7917L6.35461 38.1579L9.28097 39.9611L13.1443 42.8271L18.296 46.345L23.3713 50.1219L28.4501 53.6987L33.1488 57.7985L38.4458 61.4606L43.5718 65.1523L48.6771 68.7069L53.4541 72.7199L58.8668 76.2175L63.8795 79.9839L68.9478 83.6233L73.7642 87.5998L77.0831 90.0659L76.7961 95.5239L76.4953 98.9543L76.4946 98.9406ZM152.863 53.4002L152.393 56.2045L151.315 61.4339L146.494 64.2671L140.874 67.2446L135.373 70.2711L129.561 72.7203L123.952 76.049L118.402 79.0505L112.661 81.6961L107.189 85.1351L101.44 87.6156L95.8953 91.1342L90.3462 94.0183L84.5922 96.6715L81.0285 98.7299L80.9309 95.1956L80.7045 91.5713L86.1116 88.3357L91.6516 85.6797L97.2635 82.9441L102.765 80.0762L108.089 76.8378L113.632 74.2437L119.198 71.276L124.635 68.2319L128.205 66.1456L128.689 65.9139L130.31 64.9688L135.525 62.695L141.14 59.8903L145.22 57.4054L147.553 56.1065L152.001 53.9271L152.17 53.7322L152.884 53.406L152.863 53.4002Z" fill="#191919"/>
<path d="M81.0475 91.5332L151.813 55.9168L80.5838 93.392L81.0475 91.5332Z" fill="#191919"/>
<path d="M80.6948 95.5662L150.485 59.082L80.529 97.1822L80.6948 95.5662Z" fill="#191919"/>
<path d="M80.1403 84.7008L52.3086 65.8101L83.9134 82.5558L80.1403 84.7008Z" fill="#191919"/>
<path d="M87.6998 80.4105L66.21 70.3857L91.7034 77.9157L87.6998 80.4105Z" fill="#191919"/>
<path d="M28.3486 111.45L28.5777 113.101L121.892 112.595L28.3486 111.45Z" fill="#191919"/>
<path d="M28.707 115.619L28.7952 117.346L120.553 115.52L28.707 115.619Z" fill="#191919"/>
<path d="M24.6222 38.426L62.9442 20.5817L66.2317 24.0567L57.5216 28.6475L36.6348 38.4132L29.67 42.2044L24.6222 38.426Z" fill="#191919"/>
<path d="M36.0037 46.3038L64.1661 30.3233L68.866 27.4204L72.193 30.1827L49.2173 43.339L39.5613 48.8543L36.0037 46.3038Z" fill="#191919"/>
<path d="M31.41 73.0581L34.0609 74.8684L30.7913 97.9611L31.41 73.0581Z" fill="#191919"/>
<path d="M35.3569 75.5337L37.7338 77.1096L34.2254 92.2804L35.3569 75.5337Z" fill="#191919"/>
<path d="M39.2529 78.0877L41.4411 79.8871L37.4268 88.7918L39.2529 78.0877Z" fill="#191919"/>
</g>
<defs>
<clipPath id="clip0_438_1998">
<rect width="153.737" height="119.896" fill="white" transform="translate(0.90332 8.09375) rotate(-2.92138)"/>
</clipPath>
</defs>
</svg>
