<svg width="168" height="131" viewBox="0 0 168 131" fill="none" xmlns="http://www.w3.org/2000/svg">
<g clip-path="url(#clip0_438_1975)">
<path d="M84.4035 129.156C129.499 129.156 166.056 113.565 166.056 94.3323C166.056 75.0998 129.499 59.5088 84.4035 59.5088C39.308 59.5088 2.75098 75.0998 2.75098 94.3323C2.75098 113.565 39.308 129.156 84.4035 129.156Z" fill="#FDF8F6" stroke="#191919" stroke-width="4.5" stroke-miterlimit="10"/>
<path d="M50.6795 43.5764C51.6074 42.806 52.2725 41.9537 52.7652 40.9702C53.2661 39.9785 53.5863 38.8393 53.7423 37.3969C53.7916 36.9051 53.8737 36.1102 53.9065 34.4792C53.923 33.7662 53.923 32.9384 53.9065 32.0287C53.9065 31.119 53.8901 30.1191 53.7998 29.0619C53.7177 28.0046 53.5617 26.8982 53.2743 25.8082C52.9869 24.7181 52.5435 23.6445 51.9933 22.7102C50.893 20.817 49.3986 19.4483 48.2244 18.6369C47.937 18.4238 47.6496 18.2599 47.4115 18.1042C47.1651 17.9567 46.9434 17.8419 46.771 17.7436C46.5986 17.6453 46.4507 17.5879 46.3522 17.5387C46.2537 17.4977 46.2044 17.4731 46.2044 17.4731C46.2044 17.4731 46.1634 17.4567 46.0812 17.4158C45.9991 17.3748 45.8842 17.3174 45.72 17.2601C45.5639 17.1945 45.3669 17.1207 45.137 17.0306C44.907 16.9568 44.6361 16.8749 44.3405 16.7847C44.0366 16.7191 43.7164 16.6208 43.3469 16.5552C42.9774 16.4897 42.5833 16.4405 42.1481 16.4159C41.2941 16.3831 40.2841 16.4569 39.2659 16.9404C38.765 17.1863 38.2806 17.5469 37.8946 17.9977C37.5087 18.4566 37.2213 18.9811 37.0489 19.5385C36.8682 20.0958 36.7861 20.6695 36.7861 21.2514C36.7861 21.8333 36.8929 22.4069 37.0571 22.9315C37.3856 23.9969 37.9521 24.9066 38.5515 25.6688C38.8471 26.0458 39.1756 26.4146 39.5287 26.7343C39.8736 27.0539 40.2348 27.3408 40.6126 27.5866C41.639 28.2587 42.7639 28.5455 43.6836 28.4308C44.595 28.3242 45.2109 27.9227 45.5557 27.6358C46.2701 27.0375 46.6314 26.2999 46.812 25.6279C46.9927 24.9476 46.9763 24.2756 46.8531 23.7101C46.5986 22.5463 45.9991 21.6529 45.2026 20.7514C45.4818 21.9234 45.5968 22.8987 45.5147 23.8084C45.4736 24.2674 45.3751 24.6854 45.1944 25.1033C45.0138 25.5213 44.751 25.9311 44.3897 26.2261C44.2091 26.3737 43.9299 26.554 43.4701 26.6031C43.0267 26.6605 42.3616 26.5376 41.5979 26.0376C41.3187 25.8655 41.0478 25.6442 40.7768 25.3902C40.5058 25.1361 40.2513 24.8493 39.9885 24.5296C39.4794 23.8904 39.0442 23.161 38.8061 22.3906C38.6911 22.0054 38.6172 21.612 38.6172 21.235C38.6172 20.8498 38.6665 20.4646 38.7897 20.1122C38.9046 19.7597 39.0771 19.4401 39.2988 19.186C39.5205 18.932 39.7832 18.7353 40.0788 18.5796C40.6783 18.2845 41.4008 18.2108 42.066 18.2435C42.4026 18.2599 42.7229 18.3009 43.0185 18.3501C43.3141 18.3993 43.6015 18.4894 43.856 18.5386C44.1106 18.6205 44.3323 18.6861 44.5293 18.7517C44.7264 18.8254 44.8906 18.891 45.0302 18.9484C45.1698 18.9975 45.2683 19.0467 45.3422 19.0795C45.4079 19.1123 45.449 19.1287 45.449 19.1287C45.449 19.1287 45.49 19.1451 45.5721 19.186C45.6543 19.227 45.7774 19.2762 45.9334 19.3663C46.0812 19.4483 46.2701 19.5467 46.4836 19.6696C46.6889 19.8089 46.9352 19.94 47.1815 20.1285C48.1915 20.8334 49.4807 22.0218 50.4168 23.6363C50.8848 24.4395 51.2543 25.3328 51.5089 26.2835C51.7552 27.2342 51.903 28.2341 51.9769 29.2094C52.0508 30.1929 52.0672 31.1518 52.0754 32.0451C52.0754 32.9466 52.0754 33.7662 52.0754 34.4546C52.0508 36.0282 51.9769 36.7658 51.9359 37.2166C51.8045 38.5525 51.6731 39.5769 51.5007 40.5522C51.3282 41.5275 51.1394 42.47 50.6795 43.5846V43.5764Z" fill="#191919"/>
<path d="M56.2219 29.7257C56.1563 28.521 56.0988 27.5293 56.0084 26.4966C55.9181 25.464 55.7539 24.3985 55.5322 23.0463C55.4665 22.6774 55.3844 22.1283 55.2859 21.4399C55.2448 21.0957 55.1873 20.7187 55.1463 20.3171C55.1298 20.1368 55.1052 19.9565 55.0888 19.7762C55.0724 19.5795 55.0477 19.3828 55.0313 19.1861C54.9985 18.7845 54.9574 18.3747 54.9328 17.9485C54.8178 16.252 54.7932 14.3998 54.8753 12.4984C54.9656 10.5888 55.1216 8.64642 55.6964 6.94991C55.9838 6.10575 56.3697 5.31077 56.8706 4.66331C57.3633 4.00765 57.9874 3.45854 58.6443 3.04056C59.3094 2.61438 60.0073 2.31934 60.6971 2.11445C61.3868 1.92595 62.0601 1.84399 62.6678 1.8194C63.8994 1.81121 64.8766 2.08166 65.5006 2.36032C65.8209 2.48325 66.059 2.63078 66.2232 2.71273C66.3792 2.80288 66.4613 2.86025 66.4613 2.86025C66.4613 2.86025 66.6584 2.98319 66.9951 3.23726C67.3153 3.49952 67.7751 3.9093 68.1775 4.52398C68.5881 5.13866 68.9411 5.97462 69.0972 6.99908C69.2532 8.02354 69.2203 9.21192 68.9904 10.4495C68.7441 11.687 68.3499 12.9983 67.6684 14.072C67.3235 14.6047 66.9212 15.0882 66.4367 15.4488C65.9605 15.8095 65.4185 16.0471 64.8273 16.1619C63.6531 16.4077 62.3804 16.1209 61.4853 15.4898C60.5903 14.8669 60.0566 13.8753 59.8924 12.9164C59.7363 12.0312 59.8595 11.3018 60.0237 10.7773C60.2044 10.2446 60.4179 9.90036 60.5903 9.68727C61.2636 8.79394 62.093 8.2858 62.9305 7.917C63.3575 7.73669 63.8009 7.59737 64.2854 7.50721C64.7698 7.42526 65.3036 7.38428 65.903 7.48263C64.9258 6.76141 63.7763 6.50734 62.6103 6.62208C62.0273 6.68764 61.4279 6.85156 60.8284 7.16299C60.229 7.47443 59.6296 7.93339 59.1205 8.60544C58.866 8.93326 58.5293 9.44959 58.2748 10.22C58.0284 10.9904 57.8642 12.023 58.0859 13.2524C58.2091 13.9244 58.4472 14.6211 58.8331 15.2685C59.219 15.916 59.761 16.5307 60.4343 16.9978C61.0994 17.4732 61.8713 17.7846 62.6842 17.9567C63.4971 18.1288 64.3511 18.137 65.1886 17.9649C65.6074 17.8912 66.0179 17.7518 66.4203 17.5797C66.8144 17.3994 67.2086 17.1781 67.5452 16.9159C68.235 16.3995 68.7851 15.7439 69.2203 15.0554C69.6555 14.367 69.9758 13.6458 70.2221 12.9328C70.4684 12.2115 70.6573 11.5067 70.7887 10.8019C71.0596 9.39222 71.1007 7.99076 70.9036 6.72862C70.7148 5.46649 70.2549 4.35187 69.7048 3.52411C69.1628 2.68815 68.5552 2.15542 68.1364 1.81121C67.7095 1.47518 67.4549 1.32766 67.4549 1.32766C67.4549 1.32766 67.3482 1.26209 67.1511 1.13916C66.9458 1.02442 66.6502 0.852309 66.2396 0.688395C65.4349 0.327785 64.1786 -0.02463 62.6513 -0.00823866C61.8877 0.0163484 61.0584 0.114697 60.2126 0.352372C59.3668 0.598243 58.4965 0.967049 57.6753 1.49157C56.8542 2.0161 56.0659 2.70454 55.4255 3.54869C54.7768 4.39285 54.3087 5.35994 53.9721 6.35982C53.2987 8.36776 53.1509 10.4577 53.0524 12.4082C52.9621 14.3834 52.9949 16.3012 53.1181 18.0633C53.1427 18.5058 53.1838 18.932 53.2166 19.35C53.2331 19.5549 53.2577 19.768 53.2823 19.9647C53.307 20.1532 53.3234 20.3417 53.3398 20.522C53.3891 20.94 53.4465 21.3334 53.4876 21.6858C53.5943 22.3988 53.6765 22.9643 53.7504 23.3495C53.9967 24.751 54.3251 25.8246 54.7275 26.8081C55.1299 27.7916 55.6225 28.6849 56.2384 29.7175L56.2219 29.7257Z" fill="#191919"/>
<path d="M129.187 78.5885C125.279 76.6462 106.442 74.1055 106.442 74.1055C106.442 74.1055 86.4397 72.8925 78.7951 74.1055C71.1504 75.3185 56.5508 78.3263 56.5508 78.3263C56.5508 78.3263 40.8428 83.047 34.2163 87.5382C30.1517 90.292 26.8426 99.1352 32.0567 104.315C37.2709 109.495 40.9002 109.011 40.9002 109.011C40.9002 109.011 36.1213 107.306 34.6843 105.126C33.2474 102.946 30.4556 97.2256 33.9371 92.7261C37.4187 88.2267 58.9239 81.1866 58.9239 81.1866C58.9239 81.1866 75.1493 78.5885 85.0684 77.8591C94.9876 77.1297 105.777 78.5148 105.777 78.5148C105.777 78.5148 128.966 79.7114 132.653 85.809C136.339 91.9066 132.653 100.914 132.653 100.914C132.653 100.914 135.929 98.1025 136.339 91.1935C136.75 84.2846 133.096 80.5309 129.187 78.5885Z" fill="#191919"/>
<path d="M70.0337 105.667C70.0337 105.667 43.8809 104.823 43.7495 84.7517C43.6017 61.8939 54.6212 40.5605 69.5328 40.5605C79.3863 40.5605 103.043 74.8431 96.1207 90.7838C89.1987 106.724 70.0255 105.667 70.0255 105.667H70.0337Z" fill="#FF7500"/>
<path d="M70.6003 107.519C70.2718 107.519 70.0583 107.519 69.968 107.511C60.3116 107.2 42.017 102.044 41.902 84.7597C41.7953 68.7699 46.9109 53.6325 55.2535 45.2483C59.5069 40.9701 64.4419 38.7163 69.5328 38.7163C75.5106 38.7163 83.6069 47.8053 88.7307 55.5912C95.9237 66.5243 102.082 81.7027 97.8205 91.5212C91.2351 106.7 74.205 107.519 70.6003 107.519ZM70.1322 103.823C70.9041 103.864 88.123 104.577 94.4293 90.046C98.1079 81.5634 91.9987 67.2701 85.6432 57.6074C79.0743 47.6168 72.571 42.3962 69.5328 42.3962C65.3944 42.3962 61.4776 44.232 57.8811 47.8381C50.3267 55.4273 45.5068 69.9091 45.6053 84.7269C45.6546 92.2096 49.6781 97.6843 57.5691 100.987C63.7357 103.569 70.0337 103.815 70.0994 103.815H70.1404L70.1322 103.823Z" fill="#191919"/>
<path d="M78.7131 67.7783C78.4996 68.1881 79.641 71.4828 79.641 71.4828L82.5149 73.1547L81.9073 70.5321L78.7213 67.7783H78.7131Z" fill="#191919"/>
<path d="M68.3342 77.9492C68.1207 78.359 69.2621 81.6537 69.2621 81.6537L72.136 83.3256L71.5284 80.703L68.3424 77.9492H68.3342Z" fill="#191919"/>
<path d="M55.96 68.0981L57.6433 72.4009L58.7107 70.9093L55.96 68.0981Z" fill="#191919"/>
<path d="M85.3721 79.916L87.0554 84.2106L88.1228 82.7271L85.3721 79.916Z" fill="#191919"/>
<path d="M52.9873 82.7354L54.6706 87.0381L55.7463 85.5465L52.9873 82.7354Z" fill="#191919"/>
<path d="M63.0625 60.0908L59.7041 59.6729L60.2789 63.238L63.0625 60.0908Z" fill="#191919"/>
<path d="M77.4486 90.9805L74.082 90.5625L74.6568 94.1276L77.4486 90.9805Z" fill="#191919"/>
<path d="M74.5498 52.6489L71.1914 52.231L71.758 55.8043L74.5498 52.6489Z" fill="#191919"/>
<path d="M111.057 54.5425C110.179 55.1653 109.259 55.7308 108.307 56.2308C106.861 56.993 104.981 59.5336 107.814 67.9998C111.928 80.2688 116.846 91.3657 125.008 91.0133C133.17 90.6609 147.138 88.5792 149.905 77.9084C152.672 67.2458 153.542 53.6245 147.778 52.7066C142.014 51.7969 124.171 50.9118 117.988 51.9116C114.588 52.4608 112.363 53.6164 111.049 54.5425H111.057Z" fill="#FDF8F6" stroke="#191919" stroke-width="4.5" stroke-miterlimit="10"/>
<path d="M108.38 64.0329C108.799 64.3362 109.209 64.664 109.612 65.0328C109.694 65.1066 109.768 65.1967 109.85 65.2787C110.137 65.4426 110.424 65.6065 110.745 65.7786C114.046 67.5161 131.338 67.0653 141.02 64.6394C146.069 63.3691 149.329 61.9512 151.316 60.476C151.259 60.394 151.193 60.3121 151.144 60.2219C150.594 59.2876 150.495 58.9516 150.413 58.3369C150.208 58.591 149.978 58.8532 149.691 59.1155C146.234 62.2872 131.552 64.7705 119.424 64.6312C111.656 64.5411 109.045 62.3036 108.175 60.7137C108.15 61.2546 108.158 61.7873 108.207 62.3282C108.339 62.9019 108.396 63.4674 108.388 64.0411L108.38 64.0329Z" fill="#191919"/>
<path d="M146.743 55.8698C143.451 53.7226 121.198 53.3619 113.915 56.5173C106.632 59.6644 111.23 62.3936 111.23 62.3936C111.23 62.3936 111.944 63.0411 114.243 63.541C114.695 63.6393 115.533 63.7213 116.633 63.7705L116.313 63.836C116.313 63.836 123.21 64.2868 123.826 67.0815C124.442 69.8763 126.626 74.0561 127.989 73.1627C129.352 72.2612 130.181 71.7941 130.855 69.4009C131.528 67.0078 130.764 65.3113 132.891 64.631C135.018 63.9508 137.982 62.1149 138.91 61.8691C145.479 60.2053 149.699 57.8122 146.735 55.8862L146.743 55.8698Z" fill="#9BE59B"/>
<path d="M138.917 56.3288L137.686 55.3617L147.202 37.0935L148.779 35.9707L156.276 42.5682L154.436 44.9204L142.793 57.5664H140.962L138.917 56.3288Z" fill="#191919"/>
<path d="M138.918 56.3289L140.963 57.5664L143.648 54.4275L147.203 49.633L151.128 45.6827L153.37 43.0682L148.698 38.5278L138.918 56.3289Z" fill="#FF7500"/>
<path d="M65.4601 89.1527L62.5205 88.2676L64.3188 92.1933L65.4601 89.1527Z" fill="#191919"/>
<path d="M49.4482 112.011C49.4482 112.011 79.3043 117.1 98.7813 113.461C118.258 109.831 128.087 104.741 128.087 104.741C128.087 104.741 114.801 113.822 100.785 116.551C86.7683 119.28 68.2027 117.641 68.2027 117.641L49.4565 112.011H49.4482Z" fill="#191919"/>
</g>
<defs>
<clipPath id="clip0_438_1975">
<rect width="167" height="131" fill="white" transform="translate(0.90332)"/>
</clipPath>
</defs>
</svg>
