<svg width="86" height="36" viewBox="0 0 86 36" fill="none" xmlns="http://www.w3.org/2000/svg">
<path d="M31.0339 13.5161H22.8088C22.6991 12.6717 22.4743 11.9095 22.1343 11.2296C21.7944 10.5496 21.3447 9.9684 20.7854 9.48587C20.2261 9.00333 19.5626 8.63594 18.795 8.38371C18.0383 8.12051 17.1993 7.9889 16.2781 7.9889C14.6441 7.9889 13.2348 8.38919 12.0504 9.18976C10.877 9.99034 9.97222 11.1473 9.33615 12.6607C8.71105 14.1741 8.3985 16.0056 8.3985 18.1551C8.3985 20.3923 8.71653 22.2676 9.3526 23.781C9.99964 25.2835 10.9044 26.4185 12.0669 27.1862C13.2403 27.9429 14.6276 28.3213 16.2288 28.3213C17.128 28.3213 17.945 28.2061 18.6798 27.9758C19.4256 27.7455 20.0781 27.411 20.6374 26.9723C21.2077 26.5227 21.6737 25.9799 22.0356 25.3438C22.4085 24.6967 22.6662 23.9675 22.8088 23.1559L31.0339 23.2053C30.8913 24.6967 30.4581 26.1663 29.7343 27.6139C29.0215 29.0615 28.0399 30.383 26.7897 31.5784C25.5395 32.7628 24.0151 33.7059 22.2166 34.4078C20.429 35.1097 18.3782 35.4606 16.0643 35.4606C13.0155 35.4606 10.2848 34.7916 7.87209 33.4537C5.47037 32.1048 3.57313 30.1417 2.18035 27.5645C0.787574 24.9874 0.091186 21.8509 0.091186 18.1551C0.091186 14.4483 0.798541 11.3063 2.21325 8.72916C3.62796 6.15198 5.54166 4.19441 7.95434 2.85647C10.367 1.51853 13.0703 0.849554 16.0643 0.849554C18.1041 0.849554 19.9903 1.13469 21.7231 1.70496C23.4558 2.26426 24.9802 3.08677 26.2962 4.17248C27.6122 5.24722 28.6815 6.56871 29.504 8.13696C30.3265 9.7052 30.8365 11.4983 31.0339 13.5161ZM35.6934 35V1.31016H43.8362V28.3871H57.8517V35H35.6934ZM56.8482 7.92311V1.31016H85.3234V7.92311H75.1078V35H67.0802V7.92311H56.8482Z" fill="#9BE59B"/>
</svg>
