<svg width="45" height="45" viewBox="0 0 45 45" fill="none" xmlns="http://www.w3.org/2000/svg">
<path fill-rule="evenodd" clip-rule="evenodd" d="M7.98161 0.399392C7.82468 0.68611 7.79009 1.20411 7.865 2.14249C8.11212 5.24043 8.18703 13.0279 7.98578 14.7016C7.58016 18.0749 7.4406 18.7315 7.17505 18.5157C6.87266 18.2703 5.91891 18.4313 4.89963 18.9002C1.88613 20.2863 -0.229579 26.1359 1.56097 28.1314C2.76846 29.4772 4.94603 28.8314 6.13162 26.7757C6.29342 26.4951 6.6914 25.5003 7.01586 24.565C7.3405 23.6296 7.61022 23.0586 7.61526 23.296C7.62464 23.7325 7.20599 27.1095 7.00248 28.2391C6.90516 28.7788 6.93957 28.8644 7.28836 28.9536C7.50647 29.0094 7.75864 29.0104 7.84901 28.9557C7.93938 28.9011 8.532 27.8313 9.16581 26.5783C9.79962 25.3255 10.3933 24.1543 10.485 23.9757C10.6281 23.6973 10.7528 23.8368 11.3628 24.9574C13.3062 28.5275 15.661 27.4257 17.6531 22.0141C17.8942 21.3594 18.2293 20.5176 18.3978 20.1434C18.5664 19.7693 18.9951 18.6821 19.3505 17.7276C19.9791 16.0388 20.3448 15.4476 20.5551 15.7806C20.7921 16.1558 21.4841 21.3582 21.6503 24.0128C21.762 25.8016 22.0003 26.3011 22.5053 25.8067C22.8244 25.4945 23.03 23.9958 23.177 20.9087C23.3268 17.7632 23.6263 16.4872 24.2147 16.4872C24.4448 16.4872 24.796 17.1258 25.0096 17.9327C25.8383 21.0628 26.8417 23.4596 27.3236 23.4596C27.6551 23.4596 28.0624 23.0943 28.3667 22.5243L28.639 22.0141L28.646 22.5744C28.6505 22.9436 28.8057 23.2844 29.1006 23.573C29.4903 23.9543 29.6535 23.9995 30.3604 23.9215C31.289 23.8191 31.8552 23.2929 32.7168 21.7318C33.2886 20.696 34.9094 16.7076 34.9094 16.3364C34.9094 16.2012 34.9488 16.1291 34.9969 16.1762C35.0453 16.2233 35.2102 17.5945 35.3636 19.2231C35.5169 20.8516 35.7067 22.7581 35.7854 23.4596C35.864 24.1611 35.9848 26.2703 36.0536 28.1469C36.2783 34.2627 35.5167 39.7458 34.1143 42.1108C33.5383 43.0822 32.5321 43.8665 31.8616 43.8665C30.4011 43.8665 29.8086 42.2579 29.7949 38.2546C29.7854 35.4774 29.8158 35.3082 30.8662 32.3026C31.5886 30.2352 32.6369 28.4292 34.5479 25.9601C35.1236 25.2161 35.2616 24.9267 35.1103 24.7785C34.8383 24.5124 33.9631 25.3491 32.6282 27.1512C30.6155 29.8682 29.4953 32.4601 28.8285 35.9423C28.4401 37.9703 28.7869 41.4214 29.5563 43.1814C30.0109 44.2218 30.4489 44.641 31.3349 44.8836C31.9949 45.0644 32.1607 45.0479 32.7785 44.7394C33.6176 44.3206 34.7914 43.0581 35.3596 41.9634C36.4675 39.829 37.0125 35.8621 37.0139 29.9218C37.0145 27.7238 36.9691 25.428 36.9131 24.82C36.8572 24.2121 36.7399 22.8346 36.6523 21.759C36.1281 15.3196 35.9088 13.1532 35.7665 13.0104C35.6659 12.9095 35.433 12.9095 35.1408 13.0104C34.7236 13.1544 34.6362 13.3381 34.2954 14.7866C33.6782 17.4089 32.0335 21.2053 30.9873 22.4219C30.6795 22.7799 30.3921 22.9496 30.1505 22.9157C29.8059 22.8676 29.7833 22.7674 29.7946 21.3332C29.8113 19.183 30.3955 17.7086 31.8227 16.2158C32.3953 15.6168 32.9525 15.125 33.0611 15.123C33.1696 15.121 33.4539 14.972 33.6928 14.7921C34.0317 14.5368 34.0813 14.4196 33.9181 14.2594C33.5764 13.9239 32.1724 14.5577 31.2433 15.4669C30.1411 16.5454 29.6236 17.3921 28.5827 19.819C28.0956 20.9546 27.6189 21.9025 27.5233 21.9253C27.3657 21.9629 26.7595 20.3043 25.9394 17.5926C25.202 15.1541 24.4556 14.5724 23.4353 15.6412C22.7453 16.3639 22.3965 17.6099 22.3965 19.3523C22.3965 20.146 22.3588 20.7584 22.3126 20.7131C22.2664 20.6679 22.1459 19.6996 22.045 18.5612C21.7733 15.5012 21.305 14.4465 20.2172 14.4465C19.6467 14.4465 19.2742 14.7994 19.0506 15.5519C18.995 15.739 18.7842 16.4659 18.5822 17.1674C18.1976 18.5032 17.7385 19.7355 17.0934 21.1638C16.8822 21.6315 16.653 22.1903 16.584 22.4057C16.3428 23.1584 15.2557 24.909 14.7415 25.3727C13.9716 26.0671 13.3524 25.9999 12.6006 25.1406C12.1619 24.6391 11.9146 24.124 11.728 23.3232C11.5846 22.7086 11.5067 22.1435 11.5547 22.0673C11.6029 21.9913 12.2436 21.4784 12.9787 20.9276C15.4578 19.0699 16.6083 17.807 16.4017 17.17C16.0569 16.1068 14.7795 15.8395 13.6115 16.5858C12.5005 17.2957 11.0163 19.4892 10.5841 21.0601C10.479 21.442 9.96628 22.6164 9.44491 23.6699L8.49672 25.5853L8.59491 22.8644C8.64878 21.3679 8.76401 19.2634 8.8509 18.1878C9.25844 13.1435 9.20508 5.74975 8.72734 1.05446C8.61177 -0.0813613 8.3636 -0.299376 7.98161 0.399392ZM39.2176 12.3881C38.6943 12.8458 38.6498 12.9701 38.5892 14.1452C38.4774 16.3115 39.2204 18.3289 40.6197 19.6588C41.2219 20.2312 41.2297 20.2553 40.9569 20.7043C40.5542 21.3667 39.2046 22.1607 38.7312 22.0136C37.9255 21.7634 37.6262 19.8282 38.0867 17.8477C38.3029 16.9178 38.2949 16.1447 38.0688 16.1496C37.47 16.1629 37.126 17.2128 37.0351 19.3051C36.9507 21.2529 37.0862 21.8275 37.8248 22.6518C38.2543 23.1312 39.3889 23.0392 40.342 22.4477C41.0674 21.9976 42.0347 20.8351 42.0347 20.4133C42.0347 20.3242 42.1868 20.2042 42.3727 20.1463C43.334 19.8479 45.1565 17.1117 44.8739 16.3913C44.7072 15.9663 44.4087 16.2001 43.9016 17.1525C43.6379 17.6475 43.2604 18.2538 43.0627 18.5L42.7029 18.9474L42.8467 18.4402C42.9259 18.1611 42.9881 17.0515 42.9853 15.9745C42.981 14.3377 42.9214 13.905 42.6226 13.3386C41.8634 11.899 40.2819 11.4576 39.2176 12.3881ZM39.9965 12.9519C39.7836 13.0524 39.5533 13.2959 39.4849 13.493C39.2508 14.1671 39.3999 15.8912 39.7779 16.8799C40.1524 17.8591 41.0754 19.2093 41.4534 19.3311C41.8554 19.4605 42.1216 18.1356 42.1216 16.0065V13.9101L41.4725 13.328C40.781 12.708 40.6069 12.6636 39.9965 12.9519ZM13.7705 17.7201C13.091 18.3033 12.1075 19.6933 11.886 20.3834C11.7786 20.7174 11.9916 20.6026 13.0347 19.7639C14.7601 18.3769 15.3393 17.7567 15.2123 17.4327C15.0458 17.0083 14.465 17.1241 13.7705 17.7201ZM7.10988 19.1151C6.99449 19.2512 6.46651 19.4857 5.93663 19.6365C3.77904 20.2502 1.83729 23.1984 1.81296 25.8972C1.80341 26.9658 1.84181 27.0925 2.29019 27.4702C3.04982 28.1103 3.6805 28.0156 4.56074 27.1294C5.19368 26.492 5.40379 26.0844 5.94167 24.451C6.47677 22.8259 6.95851 21.0732 7.37074 19.2506C7.47136 18.8061 7.40237 18.7702 7.10988 19.1151ZM7.6382 22.3683C7.64654 22.5664 7.68773 22.6067 7.74317 22.4712C7.79339 22.3484 7.78714 22.2017 7.72944 22.1452C7.67174 22.0887 7.63073 22.1891 7.6382 22.3683Z" fill="black"/>
</svg>
