<svg width="80" height="79" viewBox="0 0 80 79" fill="none" xmlns="http://www.w3.org/2000/svg">
<path d="M77.2173 29.8225L69.7518 27.334L73.2673 20.303C73.6237 19.5671 73.7429 18.7387 73.6085 17.9321C73.474 17.1256 73.0926 16.3806 72.5168 15.8L64.1033 7.38651C63.5196 6.80225 62.7675 6.41563 61.9527 6.28101C61.1379 6.14639 60.3014 6.27054 59.5608 6.63601L52.5298 10.1515L50.0413 2.68601C49.7785 1.90783 49.2796 1.23093 48.6142 0.749518C47.9487 0.268101 47.1497 0.00611331 46.3283 1.31675e-05H34.4783C33.6502 -0.00212442 32.8424 0.256048 32.169 0.738039C31.4957 1.22003 30.9908 1.90146 30.7258 2.68601L28.2373 10.1515L21.2063 6.63601C20.4704 6.27964 19.642 6.16045 18.8354 6.29487C18.0289 6.4293 17.2839 6.81072 16.7033 7.38651L8.28983 15.8C7.70557 16.3837 7.31895 17.1358 7.18433 17.9506C7.04971 18.7654 7.17386 19.6019 7.53933 20.3425L11.0548 27.3735L3.58933 29.862C2.81115 30.1248 2.13425 30.6237 1.65284 31.2892C1.17142 31.9547 0.909434 32.7537 0.903333 33.575V45.425C0.901196 46.2531 1.15937 47.0609 1.64136 47.7343C2.12335 48.4077 2.80478 48.9125 3.58933 49.1775L11.0548 51.666L7.53933 58.697C7.18296 59.4329 7.06377 60.2613 7.19819 61.0679C7.33262 61.8745 7.71404 62.6194 8.28983 63.2L16.7033 71.6135C17.287 72.1978 18.0391 72.5844 18.8539 72.719C19.6687 72.8536 20.5052 72.7295 21.2458 72.364L28.2768 68.8485L30.7653 76.314C31.0303 77.0985 31.5352 77.78 32.2085 78.262C32.8819 78.744 33.6897 79.0021 34.5178 79H46.3678C47.1959 79.0021 48.0037 78.744 48.6771 78.262C49.3505 77.78 49.8553 77.0985 50.1203 76.314L52.6088 68.8485L59.6398 72.364C60.3711 72.7114 61.1914 72.8257 61.9897 72.6914C62.7881 72.5572 63.5259 72.1809 64.1033 71.6135L72.5168 63.2C73.1011 62.6163 73.4877 61.8642 73.6223 61.0494C73.7569 60.2346 73.6328 59.3981 73.2673 58.6575L69.7518 51.6265L77.2173 49.138C77.9955 48.8752 78.6724 48.3763 79.1538 47.7108C79.6352 47.0453 79.8972 46.2463 79.9033 45.425V33.575C79.9055 32.7469 79.6473 31.9391 79.1653 31.2657C78.6833 30.5923 78.0019 30.0875 77.2173 29.8225ZM72.0033 42.581L67.2633 44.161C66.1733 44.5146 65.1733 45.101 64.3326 45.8796C63.4919 46.6583 62.8307 47.6105 62.3948 48.6702C61.9589 49.73 61.7587 50.8718 61.8082 52.0167C61.8577 53.1615 62.1556 54.2818 62.6813 55.3L64.9328 59.803L60.5878 64.148L56.2033 61.778C55.1904 61.2733 54.0808 60.9922 52.9497 60.9536C51.8187 60.915 50.6926 61.1199 49.6476 61.5544C48.6026 61.9889 47.6631 62.6428 46.8929 63.4719C46.1226 64.301 45.5394 65.2859 45.1828 66.36L43.6028 71.1H37.3223L35.7423 66.36C35.3888 65.27 34.8023 64.27 34.0237 63.4293C33.245 62.5886 32.2928 61.9274 31.2331 61.4915C30.1734 61.0555 29.0315 60.8554 27.8867 60.9049C26.7418 60.9543 25.6215 61.2523 24.6033 61.778L20.1003 64.0295L15.7553 59.6845L18.1253 55.3C18.651 54.2818 18.949 53.1615 18.9985 52.0167C19.0479 50.8718 18.8478 49.73 18.4119 48.6702C17.9759 47.6105 17.3147 46.6583 16.474 45.8796C15.6333 45.101 14.6333 44.5146 13.5433 44.161L8.80333 42.581V36.419L13.5433 34.839C14.6333 34.4854 15.6333 33.899 16.474 33.1204C17.3147 32.3417 17.9759 31.3895 18.4119 30.3298C18.8478 29.27 19.0479 28.1282 18.9985 26.9833C18.949 25.8385 18.651 24.7182 18.1253 23.7L15.8738 19.3155L20.2188 14.9705L24.6033 17.222C25.6215 17.7477 26.7418 18.0457 27.8867 18.0951C29.0315 18.1446 30.1734 17.9445 31.2331 17.5085C32.2928 17.0726 33.245 16.4114 34.0237 15.5707C34.8023 14.73 35.3888 13.73 35.7423 12.64L37.3223 7.90001H43.4843L45.0643 12.64C45.4179 13.73 46.0043 14.73 46.783 15.5707C47.5616 16.4114 48.5138 17.0726 49.5736 17.5085C50.6333 17.9445 51.7752 18.1446 52.92 18.0951C54.0648 18.0457 55.1851 17.7477 56.2033 17.222L60.7063 14.9705L65.0513 19.3155L62.6813 23.7C62.1766 24.713 61.8955 25.8225 61.8569 26.9536C61.8184 28.0846 62.0232 29.2108 62.4577 30.2557C62.8922 31.3007 63.5461 32.2402 64.3752 33.0105C65.2043 33.7808 66.1892 34.3639 67.2633 34.7205L72.0033 36.3005V42.581ZM40.4033 23.7C37.2784 23.7 34.2236 24.6267 31.6253 26.3628C29.027 28.0989 27.0019 30.5665 25.806 33.4536C24.6102 36.3407 24.2973 39.5175 24.9069 42.5824C25.5166 45.6473 27.0214 48.4626 29.231 50.6723C31.4407 52.882 34.256 54.3868 37.3209 54.9964C40.3858 55.6061 43.5626 55.2932 46.4497 54.0973C49.3368 52.9014 51.8044 50.8763 53.5405 48.278C55.2767 45.6797 56.2033 42.6249 56.2033 39.5C56.2033 35.3096 54.5387 31.2908 51.5756 28.3277C48.6125 25.3646 44.5937 23.7 40.4033 23.7V23.7ZM40.4033 47.4C38.8408 47.4 37.3135 46.9367 36.0143 46.0686C34.7152 45.2005 33.7026 43.9667 33.1047 42.5232C32.5067 41.0797 32.3503 39.4912 32.6551 37.9588C32.9599 36.4263 33.7123 35.0187 34.8172 33.9139C35.922 32.809 37.3297 32.0566 38.8621 31.7518C40.3946 31.447 41.983 31.6034 43.4265 32.2014C44.8701 32.7993 46.1039 33.8118 46.9719 35.111C47.84 36.4101 48.3033 37.9375 48.3033 39.5C48.3033 41.5952 47.471 43.6046 45.9895 45.0861C44.5079 46.5677 42.4985 47.4 40.4033 47.4Z" fill="#FF7500"/>
</svg>
