<svg width="132" height="63" viewBox="0 0 132 63" fill="none" xmlns="http://www.w3.org/2000/svg">
<g clip-path="url(#clip0_438_2051)">
<path d="M19.1405 63.0002C25.0453 63.1175 29.9895 61.1222 32.8007 56.2659C34.8349 52.7594 34.0297 48.6806 35.075 42.7386C36.1486 36.6646 38.7196 30.7959 36.9538 26.6145C36.304 25.03 35.2587 23.6508 33.9449 22.6091C30.5405 19.8509 25.6386 20.1296 22.22 21.6115C18.194 23.3427 16.075 21.2887 13.8855 20.8779C12.0067 20.5111 10.5093 20.0856 7.55684 20.8632C6.31372 21.186 3.50257 22.5211 1.86392 25.8222C-0.396305 30.3704 1.87804 33.9943 3.50257 41.873C5.0141 49.1795 4.51967 53.9771 7.03417 57.4983C9.54866 61.0195 13.2356 62.8828 19.1546 63.0002H19.1405Z" fill="#FF7500"/>
<path d="M24.2403 15.0385C24.2403 12.8818 22.4886 11.1652 20.3273 11.1946C19.8894 11.1946 19.4656 11.0332 19.1407 10.7251C18.8299 10.417 18.6463 9.9915 18.6604 9.55135C18.6604 9.09653 18.844 8.67106 19.1548 8.36295C19.4797 8.04018 19.9035 7.86412 20.3414 7.86412C22.5028 7.83477 24.2686 6.03016 24.2827 3.87343C24.2968 1.7167 22.5169 -0.0292229 20.3555 0.000120393C17.8269 0.0441353 15.4113 1.08582 13.6031 2.91978C11.8232 4.68037 10.8061 7.11586 10.792 9.66873C10.792 12.1922 11.795 14.6131 13.5608 16.3297C15.3831 18.1196 17.7987 19.0879 20.299 19.0439C22.4604 18.9999 24.2262 17.2099 24.2403 15.0239V15.0385Z" fill="#59D359"/>
<path d="M53.891 46.773C51.9415 44.807 50.9668 42.0341 50.9668 38.4689C50.9668 36.1948 51.4188 34.2141 52.3088 32.4829C53.1705 30.7956 54.4984 29.4165 56.1229 28.5068C57.7616 27.5825 59.6828 27.113 61.8582 27.113C67.8196 27.113 71.2381 30.1061 72.1281 36.0921H66.6047C66.4069 34.6836 65.9266 33.6419 65.1638 32.9377C64.401 32.2334 63.3274 31.8813 61.9289 31.8813C60.262 31.8813 58.9341 32.4682 57.9452 33.6419C56.9564 34.8156 56.462 36.4149 56.4478 38.4542C56.4478 40.4642 56.9423 42.0488 57.917 43.2078C58.8917 44.3669 60.262 44.9537 61.9995 44.9391C63.4263 44.9391 64.5422 44.5723 65.3616 43.824C66.1809 43.0904 66.6753 42.0194 66.8448 40.6109H72.3683C72.2694 42.2688 71.7891 43.8827 70.9697 45.3059C70.1645 46.685 68.9921 47.756 67.4523 48.5336C65.9266 49.3112 64.0902 49.6927 61.9571 49.6927C58.5244 49.6927 55.8404 48.7097 53.891 46.729V46.773Z" fill="white"/>
<path d="M97.5134 27.6853V49.1645H92.1737V42.4009C91.9759 44.9244 91.2555 46.7731 90.0265 47.9615C88.7833 49.1499 87.1164 49.7367 84.9975 49.7367C83.0622 49.7367 81.367 49.2966 79.9261 48.4016C78.4852 47.5066 77.3551 46.2155 76.564 44.5283C75.7729 42.8411 75.3633 40.8017 75.3633 38.4396C75.3633 36.0774 75.7871 34.0674 76.6347 32.3655C77.4822 30.6636 78.6265 29.3578 80.0956 28.4775C81.5789 27.5826 83.2882 27.1131 85.0116 27.1424C87.074 27.1424 88.7268 27.7293 89.9841 28.9177C91.2272 30.1061 91.9618 31.94 92.1878 34.4342V27.7146H97.5276L97.5134 27.6853ZM90.9164 43.2372C91.8911 42.0635 92.3714 40.4789 92.3714 38.4542C92.3714 36.3855 91.8911 34.7717 90.9164 33.5979C89.9417 32.4242 88.5997 31.8373 86.8904 31.8373C85.0681 31.8373 83.6131 32.4242 82.4971 33.5833C81.3811 34.7423 80.8161 36.3562 80.8161 38.4102C80.8161 40.4496 81.3811 42.0488 82.5112 43.2225C83.6413 44.3963 85.0964 44.9831 86.8904 44.9831C88.5997 44.9831 89.9417 44.3963 90.9164 43.2225V43.2372Z" fill="white"/>
<path d="M96.1855 59.1706V53.6247C97.2168 53.9475 98.2763 54.1236 99.3499 54.1236C100.678 54.1236 101.624 53.8155 102.189 53.2139C102.754 52.6124 103.037 51.5267 103.037 49.9715V27.7H108.377V50.2356C108.377 52.583 108.08 54.4317 107.473 55.8108C106.922 57.1313 105.933 58.1876 104.676 58.7745C103.418 59.376 101.723 59.6694 99.6183 59.6694C98.248 59.6694 97.1038 59.5081 96.1997 59.1706H96.1855Z" fill="white"/>
<path d="M131.968 27.6853V49.1646H126.628V41.8728H126.586C126.586 43.6774 126.289 45.1739 125.71 46.3476C125.117 47.5214 124.354 48.3723 123.407 48.9298C122.475 49.4727 121.415 49.7514 120.342 49.7514C118.11 49.7514 116.429 49.1059 115.313 47.8295C114.197 46.5383 113.646 44.543 113.632 41.8141V27.7146H118.972V40.4056C118.972 41.9315 119.268 43.0465 119.876 43.7507C120.469 44.455 121.387 44.8071 122.616 44.8071C123.676 44.8071 124.707 44.3523 125.427 43.5453C126.218 42.7091 126.628 41.5647 126.628 40.1122V27.7293H131.968V27.6853Z" fill="white"/>
<path d="M103.488 23.2104C102.881 22.6236 102.542 21.7873 102.556 20.9217C102.542 20.0414 102.881 19.1904 103.488 18.5889C104.068 17.9727 104.873 17.6205 105.72 17.6352C106.554 17.6352 107.345 17.9727 107.924 18.5889C108.532 19.2051 108.856 20.0414 108.842 20.9217C108.842 22.7116 107.444 24.1641 105.72 24.1641C104.887 24.1641 104.082 23.8266 103.488 23.2104Z" fill="#59D359"/>
</g>
<defs>
<clipPath id="clip0_438_2051">
<rect width="131.065" height="63" fill="white" transform="translate(0.90332)"/>
</clipPath>
</defs>
</svg>
