<svg width="64" height="26" viewBox="0 0 64 26" fill="none" xmlns="http://www.w3.org/2000/svg">
<g clip-path="url(#clip0_438_2078)">
<path d="M22.114 19.4424C21.0705 18.4416 20.5488 17.0367 20.5488 15.2278C20.5488 14.0778 20.788 13.0669 21.2677 12.195C21.7468 11.3231 22.426 10.6511 23.306 10.1797C24.1853 9.70824 25.2096 9.47217 26.3781 9.47217C29.568 9.47217 31.3995 10.9907 31.8719 14.0264H28.9183C28.813 13.316 28.557 12.783 28.15 12.4275C27.7431 12.0719 27.1655 11.8945 26.4171 11.8945C25.5246 11.8945 24.8123 12.1921 24.281 12.7859C23.749 13.3805 23.4834 14.1944 23.4834 15.2278C23.4834 16.2481 23.746 17.0527 24.2707 17.6407C24.7954 18.2287 25.5238 18.5227 26.4561 18.5227C27.217 18.5227 27.8182 18.3352 28.2582 17.9608C28.6975 17.5864 28.9639 17.044 29.0559 16.3329H32.0095C31.944 17.2243 31.6946 18.0187 31.2612 18.7168C30.8278 19.4142 30.2008 19.9602 29.3804 20.3541C28.5599 20.7481 27.5783 20.945 26.4363 20.945C24.5981 20.9443 23.1581 20.4439 22.114 19.4424Z" fill="#E80537"/>
<path d="M45.4621 20.6539H42.6071V17.2236C42.5018 18.5024 42.1177 19.4424 41.4555 20.0435C40.7925 20.6445 39.8962 20.945 38.7674 20.945C37.7299 20.945 36.8248 20.7191 36.05 20.2665C35.2752 19.8146 34.6747 19.1593 34.2479 18.2997C33.8211 17.4408 33.6078 16.4103 33.6078 15.209C33.6078 14.0206 33.8344 12.9938 34.2869 12.1277C34.7402 11.2623 35.3568 10.6033 36.1376 10.1507C36.9183 9.69883 37.7947 9.47217 38.766 9.47217C39.869 9.47217 40.755 9.77269 41.4246 10.373C42.0942 10.9741 42.4878 11.9075 42.6063 13.1734V9.76256H45.4621V20.6539ZM41.9279 17.6501C42.4466 17.0563 42.7057 16.2481 42.7057 15.2278C42.7057 14.1814 42.4466 13.3609 41.9279 12.7664C41.4091 12.1726 40.6902 11.8749 39.7719 11.8749C38.8006 11.8749 38.0162 12.1689 37.4187 12.757C36.8212 13.345 36.5224 14.1618 36.5224 15.2082C36.5224 16.2416 36.8241 17.0556 37.4282 17.6501C38.0316 18.2446 38.8131 18.5416 39.7711 18.5416C40.6902 18.5416 41.4091 18.2446 41.9279 17.6501Z" fill="#E80537"/>
<path d="M44.7535 25.731V22.9213C45.3179 23.0893 45.8823 23.1733 46.4467 23.1733C47.1553 23.1733 47.6608 23.0183 47.9632 22.7084C48.2649 22.3984 48.4158 21.8488 48.4158 21.0609V9.76328H51.2708V21.1963C51.2708 22.3847 51.1097 23.3283 50.7881 24.0256C50.4665 24.723 49.9676 25.2241 49.2914 25.5275C48.6152 25.831 47.713 25.983 46.5835 25.983C45.8492 25.983 45.2391 25.899 44.7535 25.731Z" fill="#E80537"/>
<path d="M63.9037 9.76328V20.6539H61.0486V16.9527H61.0288C61.0288 17.8703 60.8713 18.6263 60.5564 19.2201C60.2414 19.8146 59.8308 20.2506 59.3253 20.5279C58.8198 20.8053 58.2716 20.945 57.6814 20.945C56.4864 20.945 55.5909 20.6192 54.9934 19.9667C54.3959 19.3142 54.0972 18.2968 54.0972 16.9144V9.76328H56.9522V16.1967C56.9522 16.9716 57.1126 17.5371 57.4349 17.892C57.7565 18.2475 58.2451 18.425 58.9022 18.425C59.4798 18.425 59.9817 18.2121 60.4085 17.7855C60.8352 17.359 61.0486 16.7775 61.0486 16.0418V9.76328H63.9037Z" fill="#E80537"/>
<path d="M48.662 7.49592C48.3272 7.17295 48.1602 6.78552 48.1602 6.33292C48.1602 5.86801 48.3272 5.47406 48.662 5.15109C48.9968 4.82811 49.3942 4.66663 49.8533 4.66663C50.3125 4.66663 50.7062 4.82811 51.0351 5.15109C51.3633 5.47406 51.5274 5.86801 51.5274 6.33292C51.5274 6.7848 51.3633 7.17295 51.0351 7.49592C50.7069 7.8189 50.3132 7.98038 49.8533 7.98038C49.3942 7.98038 48.9968 7.8189 48.662 7.49592Z" fill="#02C771"/>
</g>
<path d="M8.43555 24.6647C10.8806 24.7094 12.9172 23.9314 14.0781 22.031C14.9175 20.6577 14.5864 19.0592 15.0175 16.7368C15.4582 14.3591 16.5248 12.0608 15.7939 10.4276C15.4781 9.72163 15.0601 9.24989 14.5495 8.85808C13.1433 7.77989 11.1202 7.89 9.70548 8.46738C8.04026 9.14649 7.16846 8.34386 6.26429 8.17785C5.49074 8.03644 4.87111 7.86709 3.64776 8.17115C3.13433 8.29858 1.97118 8.81951 1.29475 10.1129C0.362752 11.8942 1.30157 13.3117 1.97231 16.3953C2.59422 19.2554 2.39032 21.1345 3.42853 22.5117C4.46674 23.8884 5.99054 24.62 8.43555 24.6647Z" fill="#EF7015"/>
<path d="M10.5441 5.88576C10.5464 5.04233 9.81997 4.36714 8.92546 4.38056C8.73917 4.38335 8.56424 4.31796 8.43418 4.19723C8.30412 4.07594 8.23256 3.91217 8.23313 3.73667C8.2337 3.5606 8.30583 3.39516 8.43645 3.27052C8.56765 3.14531 8.74258 3.07545 8.92886 3.07265C9.82338 3.05924 10.5532 2.35666 10.5555 1.5054C10.5577 0.661974 9.83133 -0.0132179 8.93682 0.000196473C7.8935 0.0152877 6.90243 0.421073 6.14763 1.1421C5.40191 1.8525 4.99015 2.79151 4.98731 3.78418C4.98504 4.77684 5.39226 5.70355 6.134 6.39328C6.88539 7.0925 7.87419 7.46922 8.91751 7.45357C9.81259 7.44016 10.5424 6.73702 10.5441 5.88576Z" fill="#02C771"/>
<defs>
<clipPath id="clip0_438_2078">
<rect width="43.3549" height="21.3334" fill="white" transform="translate(20.5488 4.66663)"/>
</clipPath>
</defs>
</svg>
