<svg width="115" height="48" viewBox="0 0 115 48" fill="none" xmlns="http://www.w3.org/2000/svg">
<g clip-path="url(#clip0_439_78)">
<path d="M38.536 35.8938C36.6403 34.0462 35.6924 31.4526 35.6924 28.113C35.6924 25.99 36.1269 24.1237 36.9985 22.5141C37.8689 20.9044 39.1028 19.6638 40.7018 18.7935C42.2994 17.9231 44.1604 17.4873 46.2834 17.4873C52.0789 17.4873 55.4064 20.2908 56.2647 25.8951H50.8984C50.7072 24.5836 50.2419 23.5996 49.5026 22.9432C48.7633 22.2868 47.7139 21.9593 46.3542 21.9593C44.7325 21.9593 43.4384 22.5087 42.4732 23.605C41.5066 24.7026 41.024 26.2053 41.024 28.113C41.024 29.9967 41.5012 31.4821 42.4545 32.5676C43.4077 33.6532 44.7312 34.196 46.4251 34.196C47.8074 34.196 48.8997 33.8497 49.6992 33.1585C50.4973 32.4674 50.9813 31.466 51.1484 30.1532H56.5147C56.3957 31.7989 55.9425 33.2655 55.1551 34.5543C54.3676 35.8417 53.2286 36.8497 51.7379 37.577C50.2473 38.3043 48.4639 38.6679 46.389 38.6679C43.0494 38.6666 40.4331 37.7428 38.536 35.8938Z" fill="#E80537"/>
<path d="M80.9561 38.1305H75.7688V31.7976C75.5777 34.1585 74.8798 35.8938 73.6766 37.0035C72.472 38.1131 70.8437 38.6679 68.7929 38.6679C66.9078 38.6679 65.2634 38.2508 63.8557 37.4152C62.4479 36.581 61.357 35.3711 60.5816 33.7842C59.8062 32.1986 59.4185 30.2962 59.4185 28.0783C59.4185 25.8844 59.8302 23.9887 60.6524 22.3897C61.476 20.7921 62.5963 19.5756 64.0148 18.74C65.4332 17.9058 67.0255 17.4873 68.7902 17.4873C70.7942 17.4873 72.4039 18.0421 73.6204 19.1504C74.837 20.2601 75.5523 21.9833 75.7675 24.3202V18.0234H80.9561V38.1305ZM74.5349 32.585C75.4774 31.4887 75.948 29.9967 75.948 28.113C75.948 26.1812 75.4774 24.6665 74.5349 23.5689C73.5924 22.4726 72.2862 21.9232 70.6177 21.9232C68.853 21.9232 67.4279 22.4659 66.3423 23.5515C65.2567 24.6371 64.714 26.1451 64.714 28.077C64.714 29.9847 65.2621 31.4874 66.3597 32.585C67.456 33.6826 68.8758 34.2307 70.6164 34.2307C72.2862 34.2307 73.5924 33.6826 74.5349 32.585Z" fill="#E80537"/>
<path d="M79.6686 47.5035V42.3163C80.694 42.6265 81.7194 42.7816 82.7448 42.7816C84.0323 42.7816 84.9507 42.4955 85.5002 41.9233C86.0483 41.3511 86.3224 40.3364 86.3224 38.8818V18.0247H91.5096V39.1318C91.5096 41.3257 91.2168 43.0677 90.6326 44.3551C90.0484 45.6426 89.1419 46.5677 87.9133 47.1279C86.6847 47.688 85.0456 47.9688 82.9935 47.9688C81.6593 47.9688 80.551 47.8137 79.6686 47.5035Z" fill="#E80537"/>
<path d="M114.462 18.0247V38.1305H109.274V31.2976H109.238C109.238 32.9914 108.952 34.3871 108.38 35.4834C107.808 36.581 107.062 37.3858 106.143 37.8979C105.225 38.4099 104.229 38.6679 103.157 38.6679C100.986 38.6679 99.3586 38.0663 98.273 36.8618C97.1874 35.6572 96.6447 33.7789 96.6447 31.2267V18.0247H101.832V29.9018C101.832 31.3323 102.123 32.3764 102.709 33.0315C103.293 33.6879 104.181 34.0155 105.375 34.0155C106.424 34.0155 107.336 33.6224 108.111 32.835C108.887 32.0476 109.274 30.974 109.274 29.6157V18.0247H114.462Z" fill="#E80537"/>
<path d="M86.7687 13.8385C86.1604 13.2423 85.8569 12.527 85.8569 11.6915C85.8569 10.8332 86.1604 10.1059 86.7687 9.50963C87.377 8.91336 88.0989 8.61523 88.9332 8.61523C89.7674 8.61523 90.4826 8.91336 91.0802 9.50963C91.6765 10.1059 91.9746 10.8332 91.9746 11.6915C91.9746 12.5257 91.6765 13.2423 91.0802 13.8385C90.484 14.4348 89.7687 14.7329 88.9332 14.7329C88.0989 14.7329 87.377 14.4348 86.7687 13.8385Z" fill="#02C771"/>
</g>
<path d="M13.6849 45.5345C18.1271 45.6171 21.8274 44.1807 23.9366 40.6723C25.4617 38.137 24.8601 35.1859 25.6433 30.8984C26.444 26.5088 28.3819 22.2658 27.0539 19.2506C26.4802 17.9474 25.7207 17.0765 24.793 16.3531C22.2381 14.3627 18.5626 14.5659 15.9922 15.6319C12.9667 16.8856 11.3828 15.4038 9.74007 15.0973C8.33466 14.8363 7.20888 14.5236 4.98623 15.085C4.05341 15.3202 1.94014 16.2819 0.711174 18.6697C-0.982131 21.9583 0.723556 24.5751 1.9422 30.268C3.0721 35.5481 2.70166 39.0172 4.58792 41.5598C6.47419 44.1013 9.24271 45.452 13.6849 45.5345Z" fill="#EF7015"/>
<path d="M17.5158 10.866C17.5199 9.3089 16.2002 8.06239 14.575 8.08716C14.2365 8.09232 13.9187 7.97159 13.6824 7.7487C13.4461 7.52479 13.3161 7.22245 13.3171 6.89844C13.3181 6.5734 13.4492 6.26796 13.6865 6.03786C13.9249 5.80672 14.2427 5.67773 14.5811 5.67257C16.2063 5.64781 17.5323 4.35074 17.5364 2.7792C17.5406 1.2221 16.2208 -0.0244023 14.5956 0.000362719C12.7 0.0282233 10.8994 0.777364 9.52806 2.10848C8.17321 3.41999 7.4251 5.15354 7.41994 6.98615C7.41581 8.81876 8.15566 10.5296 9.50329 11.8029C10.8685 13.0938 12.665 13.7893 14.5605 13.7604C16.1867 13.7356 17.5127 12.4375 17.5158 10.866Z" fill="#02C771"/>
<defs>
<clipPath id="clip0_439_78">
<rect width="78.7692" height="39.3846" fill="white" transform="translate(35.6924 8.61523)"/>
</clipPath>
</defs>
</svg>
