<svg width="28" height="47" viewBox="0 0 28 47" fill="none" xmlns="http://www.w3.org/2000/svg">
<path d="M13.8368 46.1273C18.279 46.2099 21.9793 44.7735 24.0884 41.2651C25.6136 38.7298 25.012 35.7786 25.7952 31.4912C26.5959 27.1016 28.5338 22.8585 27.2057 19.8434C26.632 18.5402 25.8726 17.6693 24.9449 16.9459C22.39 14.9554 18.7144 15.1587 16.144 16.2246C13.1186 17.4784 11.5347 15.9966 9.89192 15.6901C8.48651 15.4291 7.36074 15.1164 5.13808 15.6777C4.20527 15.913 2.09199 16.8747 0.863029 19.2625C-0.830275 22.5511 0.875412 25.1679 2.09405 30.8607C3.22396 36.1408 2.85351 39.61 4.73978 42.1525C6.62604 44.694 9.39456 46.0448 13.8368 46.1273Z" fill="#EF7015"/>
<path d="M17.6676 11.4588C17.6718 9.90167 16.352 8.65517 14.7268 8.67993C14.3884 8.68509 14.0705 8.56436 13.8342 8.34148C13.5979 8.11756 13.4679 7.81522 13.469 7.49121C13.47 7.16617 13.601 6.86074 13.8384 6.63063C14.0767 6.39949 14.3945 6.27051 14.733 6.26535C16.3582 6.24058 17.6842 4.94352 17.6883 3.37197C17.6924 1.81487 16.3726 0.568371 14.7474 0.593136C12.8519 0.620997 11.0513 1.37014 9.67991 2.70125C8.32506 4.01277 7.57695 5.74631 7.57179 7.57892C7.56767 9.41153 8.30752 11.1224 9.65515 12.3957C11.0203 13.6866 12.8168 14.3821 14.7124 14.3532C16.3386 14.3284 17.6646 13.0303 17.6676 11.4588Z" fill="#02C771"/>
</svg>
