<svg width="672" height="470" viewBox="0 0 672 470" fill="none" xmlns="http://www.w3.org/2000/svg">
<g clip-path="url(#clip0_465_333)">
<path d="M578.329 291.37C578.443 283.024 576.078 273.58 572.604 264.286C564.309 242.105 550.31 222.574 532.936 206.481C519.472 194.01 500.168 169.179 492.797 125.338C481 55.1211 433.942 -7.89447 358.775 2.26226C283.607 12.419 239.757 98.5818 185.224 129.705C130.691 160.828 14.3244 218.505 85.5651 372.767C85.8037 373.283 86.039 373.795 86.2818 374.308C113.242 431.883 171.139 468.603 234.695 468.474L250.963 466.983C282.339 464.111 313.264 457.623 343.219 447.875C367.246 440.057 398.321 431.872 430.258 426.537C488.266 416.846 577.115 379.823 578.329 291.37Z" fill="#FFDCC6"/>
<g clip-path="url(#clip1_465_333)">
<path d="M249.905 338.086L231.904 335.288L234.062 322.062L249.905 338.086Z" fill="black"/>
<path d="M91.038 162.887L207.145 414.43L381.528 341.339L291.324 138.342L218.924 104.186L91.038 162.887Z" fill="white"/>
<path d="M196.782 382.179L182.394 349.17L171.002 325.221L152.563 293.082L91.0388 162.887C91.0388 162.887 223.801 104.949 221.798 104.605C220.958 104.459 195.27 106.557 195.27 106.557L78.8947 157.667L145.003 296.024L164.677 331.059L186.144 380.791L206.448 418.677L385.187 341.944L289.843 132.745L289.374 142.402L375.409 339.634L210.191 409.311L196.791 382.177L196.782 382.179Z" fill="black"/>
<path d="M220.777 104.638C223.069 104.247 289.834 132.756 289.834 132.756L290.373 142.373L239.97 166.413L211.636 109.072L217.749 106.17L221.351 113.413L242.066 154.393L280.471 138.093L215.639 107.911L220.766 104.631L220.777 104.638Z" fill="black"/>
<path d="M154.36 227.523L157.954 234.768L274.518 180.976L272.884 174.92L154.36 227.523Z" fill="black"/>
<path d="M164.745 247.38L280.258 192.611L282.055 199.014L167.071 253.139L164.745 247.38Z" fill="black"/>
<path d="M173.844 266.176L177.195 273.321L248.355 242.802L245.027 235.24L173.844 266.176Z" fill="black"/>
<path d="M237.79 354.036C238.073 355.144 251.111 381.023 251.111 381.023L255.007 378.686L241.377 352.861L237.788 354.027L237.79 354.036Z" fill="black"/>
<path d="M249.495 350.312L261.35 376.308L265.498 374.069L253.568 347.907L249.495 350.312Z" fill="black"/>
<path d="M260.8 344.72C261.288 346.76 271.985 370.595 271.985 370.595L276.385 368.454L265.048 342.238L260.8 344.72Z" fill="black"/>
<path d="M272.356 338.813C273.173 341.126 284.188 365.227 284.188 365.227C284.188 365.227 286.273 363.894 286.044 363.379C285.815 362.863 274.706 337.163 274.706 337.163L272.356 338.813Z" fill="black"/>
<path d="M292.964 361.353C293.007 360.509 280.705 334.919 280.705 334.919L284.907 333.272L296.991 359.784L292.964 361.353Z" fill="black"/>
<path d="M304.872 355.292L292.69 329.032L296.037 327.766L309.28 354.579L304.872 355.292Z" fill="black"/>
<path d="M303.185 324.415C303.468 325.523 315.323 351.519 315.323 351.519L318.463 349.32L305.789 322.871L303.187 324.424L303.185 324.415Z" fill="black"/>
<path d="M210.63 183.712L217.229 208.61L214.275 195.317L210.63 183.712Z" fill="white"/>
<path d="M436.569 315.158L436.565 315.14L435.314 315.401L436.569 315.158Z" fill="white"/>
<path d="M334.572 105.412L375.354 96.6006L322.754 60.686L324.998 68.5537L334.572 105.412Z" fill="white"/>
<path d="M315.462 60.3968C280.546 67.5813 192.703 88.4556 192.703 88.4556L204.422 134.34L221.14 191.618L238.759 268.757L249.666 311.475L257.821 345.553L429.641 307.986L382.519 102.538L328.899 114.967L315.456 60.4075L315.462 60.3968Z" fill="white"/>
<path d="M217.225 208.611L224.192 240.04L253.544 353.896L435.313 315.401L254.857 350.726L217.225 208.611Z" fill="black"/>
<path d="M388.446 95.307L322.615 48.7784C305.755 51.2889 183.524 82.6348 183.524 82.6348L202.318 157.276L210.617 183.706L214.263 195.31L217.207 208.606L254.84 350.721L435.295 315.397L436.546 315.136L438.17 314.789L392.683 109.359L388.433 95.2916L388.446 95.307ZM375.356 96.6006L334.576 105.42L325.002 68.5623L322.758 60.6947L375.358 96.6093L375.356 96.6006ZM429.638 307.986L257.818 345.554L249.663 311.475L238.756 268.757L221.137 191.619L204.419 134.341L192.7 88.4559C192.7 88.4559 280.534 67.5837 315.459 60.3972L328.902 114.957L382.523 102.527L429.645 307.975L429.638 307.986Z" fill="black"/>
<path d="M234.713 160.825L236.893 168.616L361.472 137.599L360.993 131.341L234.713 160.825Z" fill="black"/>
<path d="M241.207 182.284L364.933 150.108L365.486 156.725L242.416 188.365L241.207 182.284Z" fill="black"/>
<path d="M246.623 202.441L248.578 210.091L324.198 193.436L322.341 185.378L246.623 202.441Z" fill="black"/>
<path d="M292.987 300.713C293.056 301.852 301.017 329.716 301.017 329.716L305.285 328.156L296.734 300.234L292.987 300.713Z" fill="black"/>
<path d="M305.185 299.259L311.965 327.011L316.466 325.588L309.644 297.654L305.185 299.259Z" fill="black"/>
<path d="M317.33 295.883C317.428 297.977 323.478 323.396 323.478 323.396L328.195 322.116L321.964 294.238L317.33 295.883Z" fill="black"/>
<path d="M329.801 292.23C330.167 294.656 336.482 320.389 336.482 320.389C336.482 320.389 338.782 319.474 338.656 318.926C338.529 318.378 332.424 291.048 332.424 291.048L329.801 292.23Z" fill="black"/>
<path d="M345.822 318.237C346.019 317.422 338.733 289.979 338.733 289.979L343.17 289.149L350.076 317.449L345.822 318.237Z" fill="black"/>
<path d="M358.653 314.512L351.606 286.437L355.129 285.817L363.119 314.646L358.653 314.512Z" fill="black"/>
<path d="M362.78 283.861C362.85 285 369.63 312.751 369.63 312.751L373.125 311.176L365.628 282.82L362.78 283.861Z" fill="black"/>
<path d="M522.261 226.26L525.277 227.593L529.629 228.43L510.534 292.652L517.438 288.082L537.11 227.887L531.686 219.342L485.744 203.23L482.694 214.584L522.261 226.26Z" fill="#E80537"/>
<path d="M468.705 261.211L427.853 396.788L450.599 404.91L479.83 329.044L514.313 230.893L492.515 221.59C492.515 221.59 488.346 220.658 485.123 219.599L468.693 261.206L468.705 261.211ZM502.385 240.575L509.303 233.86L447.962 399.489L502.389 240.583L502.385 240.575ZM492.365 239.416L477.7 285.185L431.384 392.993L491.087 227.232L492.365 239.416Z" fill="#FFCB2E"/>
<path d="M477.701 285.195L492.366 239.425L491.084 227.234L431.385 393.003L477.701 285.195Z" fill="black"/>
<path d="M509.301 233.861L502.386 240.584L447.96 399.489L509.301 233.861Z" fill="black"/>
<path d="M521.435 178.099C518.544 176.738 514.478 174.801 509.349 178.317C505.066 181.26 502.657 185.517 501.841 188.204L494.659 188.755L490.334 199.867L481.531 196.691L476.054 211.395C476.054 211.395 476.153 219.783 476.306 219.879L448.423 302.861L422.394 386.86L419.864 396.603L420.744 403.178L421.973 424.065C421.973 424.065 422.208 432.449 421.802 433.988C421.389 435.531 428.399 437.483 428.399 437.483L435.454 430.409L456.931 409.002L486.638 330.184L520.952 232.388L522.676 232.727L504.925 297.524C504.925 297.524 516.565 296.834 518.372 294.415C520.18 291.995 531.289 260.171 531.289 260.171L542.068 227.151L534.78 215.878L526.461 212.871L528.999 202.997L525.609 198.075C525.609 198.075 527.846 191.8 527.904 189.517C527.97 187.229 524.339 179.444 521.44 178.087L521.435 178.099ZM517.43 288.085L510.534 292.651L529.629 228.43L525.269 227.596L522.253 226.264L482.686 214.588L485.736 203.233L531.678 219.345L537.102 227.89L517.43 288.085ZM479.825 329.056L450.594 404.922L427.848 396.8L468.7 261.223L485.13 219.616C488.353 220.674 492.522 221.607 492.522 221.607L514.321 230.909L479.837 329.06L479.825 329.056ZM481.935 216.337L481.959 216.346C481.959 216.346 481.947 216.341 481.935 216.337ZM431.192 425.263L428.586 423.542C428.586 423.542 428.447 402.266 428.051 399.77L447.775 407.222L431.192 425.263ZM520.962 210.884L497.338 201.724L500.119 195.116L523.093 203.348L520.954 210.888L520.962 210.884ZM508.712 194.083C508.712 194.083 509.808 189.02 510.99 187.306C512.171 185.593 513.759 184.054 513.759 184.054L511.43 194.905L508.712 194.083ZM510.099 185.396C508.03 189.031 506.971 193.772 506.971 193.772L504.177 193.213C504.177 193.213 506.102 186.206 508.303 184.017C510.496 181.832 513.326 179.831 514.553 179.525C515.784 179.227 516.754 179.11 516.754 179.11C516.754 179.11 512.172 181.75 510.103 185.385L510.099 185.396Z" fill="black"/>
</g>
</g>
<defs>
<clipPath id="clip0_465_333">
<rect width="672" height="470" fill="white"/>
</clipPath>
<clipPath id="clip1_465_333">
<rect width="446.568" height="436.906" fill="white" transform="translate(67.2793 107.277) rotate(-12.9764)"/>
</clipPath>
</defs>
</svg>
