<svg width="86" height="35" viewBox="0 0 86 35" fill="none" xmlns="http://www.w3.org/2000/svg">
<path d="M0.0273075 34.6489V0.959083H13.9441C16.4665 0.959083 18.6434 1.45259 20.4748 2.43959C22.3172 3.41563 23.7374 4.78099 24.7354 6.53567C25.7334 8.27939 26.2323 10.3082 26.2323 12.6222C26.2323 14.9472 25.7224 16.9815 24.7025 18.7252C23.6935 20.458 22.2514 21.8014 20.3761 22.7555C18.5008 23.7096 16.2745 24.1867 13.6974 24.1867H5.11039V17.7711H12.1839C13.4122 17.7711 14.4376 17.5573 15.2601 17.1295C16.0936 16.7018 16.7242 16.1042 17.1519 15.3365C17.5796 14.5578 17.7934 13.6531 17.7934 12.6222C17.7934 11.5804 17.5796 10.6811 17.1519 9.9244C16.7242 9.15673 16.0936 8.56452 15.2601 8.14779C14.4266 7.73105 13.4013 7.52268 12.1839 7.52268H8.17012V34.6489H0.0273075ZM33.4622 34.6489H24.7107L36.0777 0.959083H46.9184L58.2854 34.6489H49.5339L41.6214 9.44734H41.3582L33.4622 34.6489ZM32.2942 21.3901H50.5867V27.5754H32.2942V21.3901ZM56.6034 7.57203V0.959083H85.0785V7.57203H74.863V34.6489H66.8353V7.57203H56.6034Z" fill="#F18184"/>
</svg>
