<svg width="114" height="87" viewBox="0 0 114 87" fill="none" xmlns="http://www.w3.org/2000/svg">
<path d="M59.0232 44.2768C61.7675 41.9316 63.9687 39.031 65.4774 35.7719C66.9861 32.5128 67.7669 28.9714 67.7668 25.3881C67.7668 18.6547 65.0574 12.1972 60.2346 7.43599C55.4118 2.67481 48.8706 9.08441e-07 42.0501 9.08441e-07C35.2296 9.08441e-07 28.6884 2.67481 23.8656 7.43599C19.0428 12.1972 16.3334 18.6547 16.3334 25.3881C16.3333 28.9714 17.1141 32.5128 18.6228 35.7719C20.1315 39.031 22.3327 41.9316 25.0771 44.2768C17.8771 47.4954 11.7685 52.6931 7.48156 59.2484C3.19466 65.8036 0.910891 73.4391 0.90332 81.2418C0.90332 82.5885 1.44521 83.88 2.40977 84.8322C3.37434 85.7845 4.68257 86.3194 6.04667 86.3194C7.41077 86.3194 8.719 85.7845 9.68356 84.8322C10.6481 83.88 11.19 82.5885 11.19 81.2418C11.19 73.1618 14.4413 65.4127 20.2287 59.6993C26.0161 53.9859 33.8655 50.7761 42.0501 50.7761C50.2347 50.7761 58.0841 53.9859 63.8715 59.6993C69.6589 65.4127 72.9102 73.1618 72.9102 81.2418C72.9102 82.5885 73.4521 83.88 74.4166 84.8322C75.3812 85.7845 76.6894 86.3194 78.0535 86.3194C79.4176 86.3194 80.7259 85.7845 81.6904 84.8322C82.655 83.88 83.1969 82.5885 83.1969 81.2418C83.1893 73.4391 80.9055 65.8036 76.6186 59.2484C72.3317 52.6931 66.2231 47.4954 59.0232 44.2768V44.2768ZM42.0501 40.6209C38.9983 40.6209 36.0151 39.7275 33.4776 38.0537C30.9402 36.3799 28.9625 34.0009 27.7946 31.2174C26.6267 28.434 26.3212 25.3712 26.9165 22.4163C27.5119 19.4614 28.9815 16.7472 31.1394 14.6168C33.2973 12.4865 36.0467 11.0357 39.0399 10.4479C42.033 9.86016 45.1355 10.1618 47.9549 11.3148C50.7744 12.4677 53.1842 14.4201 54.8797 16.9252C56.5752 19.4302 57.4801 22.3753 57.4801 25.3881C57.4801 29.4281 55.8545 33.3026 52.9608 36.1593C50.0671 39.016 46.1424 40.6209 42.0501 40.6209ZM92.1463 42.2457C95.4379 38.5865 97.588 34.066 98.3379 29.2285C99.0877 24.3909 98.4054 19.4426 96.3729 14.979C94.3405 10.5154 91.0446 6.7268 86.8819 4.06931C82.7193 1.41183 77.8674 -0.00130799 72.9102 9.08441e-07C71.5461 9.08441e-07 70.2379 0.534962 69.2733 1.4872C68.3087 2.43944 67.7668 3.73095 67.7668 5.07761C67.7668 6.42428 68.3087 7.71579 69.2733 8.66803C70.2379 9.62026 71.5461 10.1552 72.9102 10.1552C77.0025 10.1552 80.9272 11.7601 83.8209 14.6168C86.7146 17.4735 88.3402 21.3481 88.3402 25.3881C88.333 28.055 87.6165 30.6734 86.2626 32.9812C84.9087 35.2891 82.9648 37.2056 80.6252 38.5391C79.8626 38.9733 79.2258 39.5935 78.7755 40.3403C78.3252 41.0871 78.0766 41.9355 78.0535 42.8043C78.032 43.6663 78.2332 44.5195 78.6381 45.2835C79.0431 46.0474 79.6384 46.697 80.368 47.171L82.3739 48.4912L83.0426 48.8466C89.2423 51.7496 94.4727 56.3411 98.1176 62.0805C101.763 67.8198 103.67 74.4679 103.616 81.2418C103.616 82.5885 104.158 83.88 105.122 84.8322C106.087 85.7845 107.395 86.3194 108.759 86.3194C110.123 86.3194 111.432 85.7845 112.396 84.8322C113.361 83.88 113.903 82.5885 113.903 81.2418C113.945 73.4498 111.968 65.7767 108.16 58.9514C104.352 52.1261 98.8396 46.3754 92.1463 42.2457V42.2457Z" fill="#FF7500"/>
</svg>
