<svg width="80" height="79" viewBox="0 0 80 79" fill="none" xmlns="http://www.w3.org/2000/svg">
<path d="M49.7253 48.3085C47.0848 50.4374 43.7952 51.5984 40.4033 51.5984C37.0115 51.5984 33.7218 50.4374 31.0813 48.3085C30.2747 47.638 29.2347 47.3155 28.1902 47.4118C27.1458 47.5081 26.1823 48.0153 25.5118 48.822C24.8414 49.6286 24.5188 50.6686 24.6151 51.7131C24.7114 52.7576 25.2187 53.721 26.0253 54.3915C30.0596 57.7593 35.1481 59.604 40.4033 59.604C45.6586 59.604 50.747 57.7593 54.7813 54.3915C55.588 53.721 56.0953 52.7576 56.1916 51.7131C56.2879 50.6686 55.9653 49.6286 55.2948 48.822C54.9629 48.4226 54.5554 48.0925 54.0959 47.8505C53.6363 47.6085 53.1336 47.4594 52.6164 47.4118C51.5719 47.3155 50.532 47.638 49.7253 48.3085V48.3085ZM28.5533 35.55C29.3346 35.55 30.0983 35.3183 30.7478 34.8843C31.3974 34.4503 31.9037 33.8334 32.2027 33.1116C32.5016 32.3898 32.5798 31.5956 32.4274 30.8294C32.275 30.0632 31.8988 29.3593 31.3464 28.8069C30.794 28.2545 30.0902 27.8783 29.3239 27.7259C28.5577 27.5735 27.7635 27.6517 27.0417 27.9507C26.32 28.2496 25.7031 28.7559 25.269 29.4055C24.835 30.0551 24.6033 30.8188 24.6033 31.6C24.6033 32.6476 25.0195 33.6523 25.7603 34.3931C26.501 35.1338 27.5057 35.55 28.5533 35.55ZM52.2533 27.65C51.4721 27.65 50.7084 27.8817 50.0588 28.3157C49.4093 28.7497 48.903 29.3666 48.604 30.0884C48.305 30.8102 48.2268 31.6044 48.3792 32.3706C48.5316 33.1368 48.9078 33.8406 49.4603 34.3931C50.0127 34.9455 50.7165 35.3217 51.4827 35.4741C52.2489 35.6265 53.0432 35.5483 53.7649 35.2493C54.4867 34.9503 55.1036 34.4441 55.5376 33.7945C55.9717 33.1449 56.2033 32.3812 56.2033 31.6C56.2033 30.5524 55.7872 29.5477 55.0464 28.8069C54.3056 28.0662 53.3009 27.65 52.2533 27.65ZM40.4033 0C32.591 0 24.9541 2.31663 18.4583 6.65695C11.9626 10.9973 6.89976 17.1663 3.9101 24.384C0.920435 31.6017 0.138203 39.5438 1.66232 47.2061C3.18644 54.8683 6.94845 61.9065 12.4726 67.4307C17.9968 72.9549 25.035 76.7169 32.6973 78.241C40.3595 79.7651 48.3016 78.9829 55.5193 75.9932C62.737 73.0036 68.9061 67.9407 73.2464 61.445C77.5867 54.9493 79.9033 47.3123 79.9033 39.5C79.9033 34.3128 78.8816 29.1764 76.8966 24.384C74.9115 19.5916 72.002 15.2372 68.334 11.5693C64.6661 7.90137 60.3117 4.99182 55.5193 3.00676C50.727 1.0217 45.5905 0 40.4033 0V0ZM40.4033 71.1C34.1534 71.1 28.0439 69.2467 22.8473 65.7744C17.6507 62.3022 13.6005 57.3669 11.2087 51.5928C8.81702 45.8186 8.19123 39.4649 9.41052 33.3351C10.6298 27.2053 13.6394 21.5748 18.0588 17.1554C22.4781 12.7361 28.1087 9.72648 34.2385 8.50718C40.3683 7.28789 46.722 7.91368 52.4961 10.3054C58.2703 12.6971 63.2055 16.7474 66.6778 21.944C70.15 27.1406 72.0033 33.2501 72.0033 39.5C72.0033 47.8808 68.6741 55.9184 62.7479 61.8446C56.8218 67.7707 48.7842 71.1 40.4033 71.1V71.1Z" fill="#FF7500"/>
</svg>
