<svg width="484" height="1033" viewBox="0 0 484 1033" fill="none" xmlns="http://www.w3.org/2000/svg">
<g clip-path="url(#clip0_512_340)">
<path d="M469.297 659.126C499.422 561.824 466.701 480.363 447.142 449.525C400.627 376.139 361.03 355.225 315.005 325.64C276.522 300.865 222.655 293.361 176.695 249.519C176.456 249.294 176.218 249.069 175.979 248.844C175.74 248.619 175.502 248.394 175.263 248.169C128.77 204.904 119.087 152.508 92.3666 115.791C60.4352 71.8983 37.601 33.9669 -39.0945 -8.77982C-71.3232 -26.7547 -155.757 -55.7177 -254.039 -22.6574C-389.459 22.8837 -412.492 138.889 -531.78 326.134C-642.293 499.945 -745.979 584.838 -762.046 703.543C-778.113 822.248 -737.686 931.528 -616.7 1049.88C-616.076 1050.47 -615.452 1051.1 -614.845 1051.7C-614.222 1052.29 -613.561 1052.88 -612.92 1053.45C-487.503 1167.3 -374.402 1202.77 -253.714 1182.67C-133.045 1162.56 -50.1692 1058.05 123.289 943.573C310.182 820.015 427.799 793.194 469.297 659.126Z" fill="#59D359"/>
</g>
<defs>
<clipPath id="clip0_512_340">
<rect width="484" height="1033" fill="white"/>
</clipPath>
</defs>
</svg>
