<svg width="68" height="42" viewBox="0 0 68 42" fill="none" xmlns="http://www.w3.org/2000/svg">
<path d="M31.2763 32.9849C31.3669 28.2574 27.5036 24.4762 22.6399 24.5486C21.6495 24.5727 20.6984 24.205 19.9869 23.5219C19.2969 22.8528 18.9188 21.9186 18.9435 20.9402C18.9665 19.9517 19.3825 19.0074 20.0984 18.3243C20.8325 17.6231 21.7963 17.2253 22.7963 17.2152C27.662 17.1409 31.7031 13.199 31.8062 8.44335C31.9093 3.68572 28.0336 -0.069348 23.1699 0.000971683C17.4942 0.0873644 12.0237 2.37978 7.88605 6.40408C3.81284 10.2676 1.43554 15.616 1.29846 21.2174C1.17041 26.7606 3.32775 32.0587 7.25048 35.8379C11.2537 39.7577 16.6452 41.8954 22.2618 41.7909C27.128 41.6945 31.171 37.7526 31.2743 32.9849H31.2763Z" fill="#FF7500"/>
<path d="M67.1171 32.9849C67.2077 28.2574 63.3444 24.4762 58.4807 24.5486C57.4904 24.5727 56.5392 24.205 55.8277 23.5219C55.1377 22.8528 54.7597 21.9186 54.7844 20.9402C54.8073 19.9517 55.2233 19.0074 55.9392 18.3243C56.6733 17.6231 57.6372 17.2253 58.6371 17.2152C63.5029 17.1409 67.5439 13.199 67.647 8.44335C67.7501 3.68572 63.8744 -0.069348 59.0107 0.000971683C53.335 0.0873644 47.8645 2.37978 43.7269 6.40408C39.6537 10.2676 37.2764 15.616 37.1393 21.2174C37.0112 26.7606 39.1686 32.0587 43.0913 35.8379C47.0945 39.7577 52.486 41.8954 58.1026 41.7909C62.9688 41.6945 67.0118 37.7526 67.1151 32.9849H67.1171Z" fill="#FF7500"/>
</svg>
