<svg width="228" height="237" viewBox="0 0 228 237" fill="none" xmlns="http://www.w3.org/2000/svg">
<path d="M14.9452 114.822C34.6871 135.336 67.2343 134.986 87.6341 113.971C91.7479 109.651 97.363 107.167 103.301 107.046C109.087 106.957 114.674 109.325 118.735 113.596C122.846 117.902 125.095 123.694 124.955 129.65C124.815 135.761 122.405 141.559 118.19 145.859C97.7906 166.892 97.3685 200.88 117.177 221.566C136.994 242.261 169.483 241.748 189.891 220.741C213.688 196.208 227.219 163.157 227.702 128.407C228.595 94.6149 215.945 61.7223 192.68 37.2899C169.625 13.144 137.882 -0.228051 105.091 0.383117C71.3577 0.738039 39.3012 14.5914 15.8326 38.9496C-4.47495 60.0783 -4.90549 94.0751 14.9536 114.814L14.9452 114.822Z" fill="#FFAC66"/>
</svg>
