<svg width="359" height="555" viewBox="0 0 359 555" fill="none" xmlns="http://www.w3.org/2000/svg">
<path d="M289.964 513.195C336.21 462.743 330.473 384.707 276.981 338.926C266 329.706 259.194 316.608 258.011 302.38C256.926 288.511 261.767 274.75 271.403 264.365C281.115 253.853 294.673 247.586 308.985 247.024C323.667 246.441 337.939 251.35 348.891 260.815C402.423 306.594 484.032 302.492 530.682 251.853C577.352 201.193 571.231 123.322 517.759 77.5196C455.319 24.1172 373.984 -3.37284 290.538 0.698705C209.329 3.6425 132.316 38.9414 77.1985 98.4366C22.7366 157.386 -4.56893 235.555 1.83227 314.138C7.76034 395.017 45.8219 469.843 107.795 522.484C161.543 568.027 243.174 563.944 289.942 513.176L289.964 513.195Z" fill="#59D359"/>
</svg>
