<svg width="206" height="394" viewBox="0 0 206 394" fill="none" xmlns="http://www.w3.org/2000/svg">
<path d="M135.479 1.29767C99.5977 6.75153 78.5583 29.8979 71.7078 40.9599C55.4006 67.2751 54.845 83.2212 52.5073 102.575C50.5402 118.764 56.5014 137.203 49.5817 158.751C49.5467 158.863 49.5116 158.974 49.4766 159.085C49.4415 159.197 49.4065 159.308 49.3714 159.42C42.7197 181.049 27.422 192.293 19.7987 206.565C10.6836 223.622 2.06715 236.836 0.273001 268.07C-0.484767 281.197 3.34305 312.771 29.2109 339.151C64.8497 375.502 105.627 364.869 184.199 374.035C257.101 382.474 300.43 402.536 340.99 389.25C381.551 375.963 410.313 346.025 429.473 288.844C429.565 288.552 429.668 288.255 429.768 287.967C429.86 287.675 429.946 287.372 430.029 287.078C447.058 229.175 440.861 187.399 415.671 151.819C390.478 116.249 344.092 105.907 280.438 68.067C211.786 27.3292 184.916 -6.22059 135.479 1.29767Z" fill="#74031C"/>
</svg>
