<svg width="325" height="691" viewBox="0 0 325 691" fill="none" xmlns="http://www.w3.org/2000/svg">
<path d="M438.923 13.506C388.643 -9.43875 341.322 2.77146 322.761 11.2827C278.593 31.5212 263.629 51.5723 243.363 74.5201C226.397 93.7046 217.449 122.405 189.423 144.349C189.279 144.463 189.135 144.577 188.991 144.691C188.847 144.805 188.703 144.919 188.559 145.033C160.799 167.306 131.387 168.998 108.978 180.993C82.1898 195.327 59.4697 205.132 29.2672 243.817C16.5691 260.072 -6.82395 303.89 2.31556 359.429C14.9024 435.954 76.0088 456.324 167.233 533.726C251.931 605.458 288.815 667.448 352.02 684.223C415.225 700.998 478.394 686.499 553.774 628.933C554.15 628.635 554.546 628.339 554.931 628.051C555.308 627.753 555.687 627.435 556.056 627.125C629.386 566.851 658.906 507.93 658.85 441.122C658.783 374.323 609.338 322.285 562.634 220.45C512.198 110.714 508.201 45.1145 438.923 13.506Z" fill="#FF7500"/>
</svg>
