<svg width="452" height="1227" viewBox="0 0 452 1227" fill="none" xmlns="http://www.w3.org/2000/svg">
<path d="M439.435 697.797C469.561 600.495 436.84 519.033 417.281 488.196C370.766 414.81 331.168 393.896 285.143 364.311C246.661 339.536 192.793 332.032 146.833 288.19C146.595 287.965 146.356 287.74 146.118 287.515C145.879 287.29 145.641 287.065 145.402 286.84C98.9086 243.575 89.2255 191.179 62.5053 154.462C30.5739 110.569 7.73968 72.6378 -68.9558 29.8911C-101.185 11.9162 -185.618 -17.0468 -283.9 16.0135C-419.32 61.5546 -442.354 177.56 -561.641 364.805C-672.154 538.616 -775.84 623.509 -791.907 742.214C-807.974 860.919 -767.547 970.199 -646.561 1088.55C-645.937 1089.14 -645.313 1089.77 -644.707 1090.37C-644.083 1090.96 -643.423 1091.55 -642.781 1092.12C-517.364 1205.98 -404.263 1241.44 -283.576 1221.34C-162.906 1201.23 -80.0305 1096.73 93.4278 982.244C280.321 858.686 397.938 831.865 439.435 697.797Z" fill="#59D359"/>
</svg>
