<svg width="256" height="682" viewBox="0 0 256 682" fill="none" xmlns="http://www.w3.org/2000/svg">
<path d="M249.126 387.241C265.863 333.182 247.684 287.924 236.818 270.791C210.975 230.019 188.975 218.4 163.405 201.963C142.024 188.198 112.097 184.029 86.5621 159.671C86.4296 159.546 86.297 159.421 86.1645 159.296C86.0319 159.171 85.8994 159.046 85.7669 158.921C59.936 134.884 54.5562 105.774 39.711 85.3747C21.9705 60.9885 9.28427 39.9146 -33.3263 16.1653C-51.232 6.17876 -98.1416 -9.91253 -152.745 8.45512C-227.982 33.7569 -240.779 98.2075 -307.053 202.237C-368.452 298.803 -426.058 345.968 -434.984 411.919C-443.911 477.869 -421.451 538.582 -354.233 604.339C-353.886 604.665 -353.539 605.012 -353.203 605.349C-352.856 605.675 -352.489 606.002 -352.133 606.318C-282.454 669.575 -219.617 689.278 -152.565 678.114C-85.5234 666.941 -39.4792 608.878 56.891 545.274C160.725 476.628 226.071 461.727 249.126 387.241Z" fill="#FFCB2E"/>
</svg>
